M48
;Layer_Color=9474304
;FILE_FORMAT=4:4
METRIC,LZ
;TYPE=PLATED
T1F00S00C0.6000
T2F00S00C0.7110
T3F00S00C0.7112
T4F00S00C0.8000
T5F00S00C0.9000
T6F00S00C1.1000
T7F00S00C1.4000
T9F00S00C2.1000
T10F00S00C4.0500
%
T01
X006175Y009
X006425
X013575
X013825
X0115Y013775
Y014025
X0085
Y013775
T02
X00744Y00798
Y00816
Y00834
X00774
Y00816
Y00798
X01228Y00796
Y00814
Y00832
X01258
Y00814
Y00796
X01222Y01406
X01188
X00794
X00761
T03
X013055Y007705
X01153Y007685
X0087Y0077
X0073105Y0102
Y0103895
X00754Y01128
X00772Y01115
X0079Y01128
X008915Y00826
X008915Y00812
X01183Y00818
Y00836
X01201
Y00818
X01274Y01132
X0137Y0115
T04
X01376Y00776
X014Y00765
X01424Y00776
X00624
X006Y00765
X00576Y00776
X00565Y008
X00576Y00824
X006Y00835
X00624Y00824
X00635Y008
X01365
X01376Y00824
X014Y00835
X01424Y00824
X01435Y008
X01424Y01376
X014Y01365
X01376Y01376
X01365Y014
X01376Y01424
X014Y01435
X01424Y01424
X01435Y014
X01035
X01024Y01424
X01Y01435
X00976Y01424
X00965Y014
X00976Y01376
X01Y01365
X01024Y01376
X00624
X006Y01365
X00576Y01376
X00565Y014
X00576Y01424
X006Y01435
X00624Y01424
X00635Y014
T05
X009Y0116
X011
Y0131
X01Y012606
Y012352
X009Y0131
T06
X00833Y00721001
X00858
X00883
X01117
X01142
X01167
X01142Y0095
X00858
T07
X0082675Y0091875
Y0098125
X0088925
Y0091875
X0111075
X0117325
Y0098125
X0111075
T09
X006Y008
X014
Y014
X01
X006
T10
X013Y0056
X007
X01Y0095
X013Y0144
X007
M30
