G04 Layer_Color=12360588*
%FSLAX44Y44*%
%MOMM*%
G71*
G01*
G75*
%ADD56C,0.3000*%
G36*
X1075000Y1030094D02*
X1053026Y1018639D01*
X1051100Y1019368D01*
X1049277Y1020097D01*
X1047507Y1020721D01*
X1045789Y1021346D01*
X1044174Y1021919D01*
X1042612Y1022440D01*
X1041102Y1022960D01*
X1039697Y1023377D01*
X1038343Y1023793D01*
X1037041Y1024210D01*
X1035791Y1024522D01*
X1034646Y1024835D01*
X1033552Y1025147D01*
X1032511Y1025408D01*
X1031522Y1025616D01*
X1030636Y1025824D01*
X1029803Y1026032D01*
X1029022Y1026189D01*
X1028293Y1026293D01*
X1027616Y1026449D01*
X1026991Y1026553D01*
X1026419Y1026605D01*
X1025950Y1026709D01*
X1025481Y1026761D01*
X1025117D01*
X1024752Y1026814D01*
X1024492D01*
X1024284Y1026866D01*
X1023034D01*
X1022149Y1026761D01*
X1021212Y1026657D01*
X1020222Y1026501D01*
X1018087Y1026085D01*
X1015796Y1025564D01*
X1013401Y1024939D01*
X1010954Y1024262D01*
X1008559Y1023533D01*
X1006163Y1022752D01*
X1003872Y1021971D01*
X1001738Y1021242D01*
X1000748Y1020878D01*
X999811Y1020565D01*
X998926Y1020201D01*
X998093Y1019940D01*
X997364Y1019628D01*
X996687Y1019420D01*
X996114Y1019159D01*
X995593Y1019003D01*
X995229Y1018847D01*
X994916Y1018743D01*
X994760Y1018639D01*
X994708D01*
X972735Y1030094D01*
X994708Y1041497D01*
X996635Y1040768D01*
X998457Y1040039D01*
X1000228Y1039414D01*
X1001946Y1038790D01*
X1003560Y1038217D01*
X1005122Y1037696D01*
X1006632Y1037227D01*
X1008038Y1036759D01*
X1009392Y1036342D01*
X1010694Y1035978D01*
X1011943Y1035613D01*
X1013089Y1035301D01*
X1014182Y1035041D01*
X1015224Y1034780D01*
X1016213Y1034572D01*
X1017098Y1034364D01*
X1017931Y1034155D01*
X1018712Y1033999D01*
X1019441Y1033895D01*
X1020118Y1033739D01*
X1020743Y1033635D01*
X1021316Y1033583D01*
X1021784Y1033531D01*
X1022253Y1033426D01*
X1022618D01*
X1022982Y1033374D01*
X1023242D01*
X1023451Y1033322D01*
X1024700D01*
X1025586Y1033426D01*
X1026523Y1033531D01*
X1027512Y1033687D01*
X1029647Y1034103D01*
X1031938Y1034624D01*
X1034333Y1035197D01*
X1036729Y1035926D01*
X1039176Y1036655D01*
X1041571Y1037436D01*
X1043862Y1038165D01*
X1045997Y1038894D01*
X1046986Y1039258D01*
X1047924Y1039623D01*
X1048809Y1039935D01*
X1049642Y1040248D01*
X1050371Y1040508D01*
X1051048Y1040768D01*
X1051621Y1040976D01*
X1052089Y1041133D01*
X1052506Y1041289D01*
X1052766Y1041393D01*
X1052974Y1041497D01*
X1053026D01*
X1075000Y1030094D01*
D02*
G37*
G36*
X958519Y1060190D02*
X958780Y1060086D01*
X958988Y1059982D01*
X959144Y1059826D01*
X959248Y1059618D01*
X959300Y1059513D01*
Y1059409D01*
Y1059357D01*
Y1054411D01*
X959248Y1053994D01*
X959092Y1053734D01*
X958936Y1053525D01*
X958676Y1053369D01*
X958467Y1053265D01*
X958311Y1053213D01*
X922695D01*
X922383Y1053265D01*
X922175Y1053421D01*
X922018Y1053577D01*
X921914Y1053838D01*
X921862Y1054046D01*
X921810Y1054202D01*
Y1054359D01*
Y1054411D01*
Y1059357D01*
X921862Y1059670D01*
X921966Y1059878D01*
X922070Y1060034D01*
X922227Y1060138D01*
X922539Y1060242D01*
X958103D01*
X958519Y1060190D01*
D02*
G37*
G36*
X1075000Y1058212D02*
X1053026Y1046756D01*
X1051100Y1047485D01*
X1049277Y1048214D01*
X1047507Y1048839D01*
X1045789Y1049464D01*
X1044174Y1050037D01*
X1042612Y1050557D01*
X1041102Y1051078D01*
X1039697Y1051495D01*
X1038343Y1051911D01*
X1037041Y1052328D01*
X1035791Y1052640D01*
X1034646Y1052953D01*
X1033552Y1053265D01*
X1032511Y1053525D01*
X1031522Y1053734D01*
X1030636Y1053942D01*
X1029803Y1054150D01*
X1029022Y1054306D01*
X1028293Y1054411D01*
X1027616Y1054567D01*
X1026991Y1054671D01*
X1026419Y1054723D01*
X1025950Y1054827D01*
X1025481Y1054879D01*
X1025117D01*
X1024752Y1054931D01*
X1024492D01*
X1024284Y1054983D01*
X1023034D01*
X1022149Y1054879D01*
X1021212Y1054775D01*
X1020222Y1054619D01*
X1018087Y1054202D01*
X1015796Y1053682D01*
X1013401Y1053057D01*
X1010954Y1052380D01*
X1008559Y1051651D01*
X1006163Y1050870D01*
X1003872Y1050089D01*
X1001738Y1049360D01*
X1000748Y1048995D01*
X999811Y1048683D01*
X998926Y1048318D01*
X998093Y1048058D01*
X997364Y1047746D01*
X996687Y1047537D01*
X996114Y1047277D01*
X995593Y1047121D01*
X995229Y1046965D01*
X994916Y1046860D01*
X994760Y1046756D01*
X994708D01*
X972735Y1058212D01*
X994708Y1069615D01*
X996635Y1068886D01*
X998457Y1068157D01*
X1000228Y1067532D01*
X1001946Y1066907D01*
X1003560Y1066335D01*
X1005122Y1065814D01*
X1006632Y1065345D01*
X1008038Y1064877D01*
X1009392Y1064460D01*
X1010694Y1064096D01*
X1011943Y1063731D01*
X1013089Y1063419D01*
X1014182Y1063158D01*
X1015224Y1062898D01*
X1016213Y1062690D01*
X1017098Y1062481D01*
X1017931Y1062273D01*
X1018712Y1062117D01*
X1019441Y1062013D01*
X1020118Y1061857D01*
X1020743Y1061752D01*
X1021316Y1061700D01*
X1021784Y1061648D01*
X1022253Y1061544D01*
X1022618D01*
X1022982Y1061492D01*
X1023242D01*
X1023451Y1061440D01*
X1024700D01*
X1025586Y1061544D01*
X1026523Y1061648D01*
X1027512Y1061805D01*
X1029647Y1062221D01*
X1031938Y1062742D01*
X1034333Y1063315D01*
X1036729Y1064044D01*
X1039176Y1064772D01*
X1041571Y1065554D01*
X1043862Y1066283D01*
X1045997Y1067011D01*
X1046986Y1067376D01*
X1047924Y1067740D01*
X1048809Y1068053D01*
X1049642Y1068365D01*
X1050371Y1068626D01*
X1051048Y1068886D01*
X1051621Y1069094D01*
X1052089Y1069250D01*
X1052506Y1069407D01*
X1052766Y1069511D01*
X1052974Y1069615D01*
X1053026D01*
X1075000Y1058212D01*
D02*
G37*
G36*
X950344Y1012182D02*
X951334Y1012078D01*
X952219Y1011973D01*
X953052Y1011765D01*
X953781Y1011505D01*
X954458Y1011245D01*
X955031Y1010984D01*
X955551Y1010724D01*
X955968Y1010411D01*
X956385Y1010151D01*
X956697Y1009891D01*
X956957Y1009630D01*
X957113Y1009422D01*
X957270Y1009318D01*
X957322Y1009214D01*
X957374Y1009162D01*
X957738Y1008537D01*
X958103Y1007912D01*
X958624Y1006506D01*
X959040Y1005100D01*
X959300Y1003694D01*
X959352Y1003018D01*
X959457Y1002445D01*
X959509Y1001924D01*
Y1001455D01*
X959561Y1001039D01*
Y1000779D01*
Y1000570D01*
Y1000518D01*
X959509Y998696D01*
X959457Y996977D01*
X959352Y995415D01*
X959300Y994686D01*
X959248Y994009D01*
X959196Y993385D01*
X959144Y992864D01*
Y992343D01*
X959092Y991979D01*
X959040Y991614D01*
X958988Y991406D01*
Y991250D01*
Y991198D01*
X958832Y990781D01*
X958676Y990521D01*
X958467Y990312D01*
X958311Y990156D01*
X958103Y990052D01*
X957999Y990000D01*
X954614D01*
X954302Y990052D01*
X954093Y990208D01*
X953937Y990365D01*
X953833Y990625D01*
X953781Y990833D01*
X953729Y990989D01*
Y991145D01*
Y991198D01*
Y1001403D01*
X953677Y1002132D01*
X953573Y1002705D01*
X953417Y1003226D01*
X953208Y1003642D01*
X953000Y1003955D01*
X952844Y1004163D01*
X952740Y1004267D01*
X952688Y1004319D01*
X952219Y1004632D01*
X951698Y1004840D01*
X951178Y1004996D01*
X950605Y1005100D01*
X950084Y1005152D01*
X949668Y1005204D01*
X942898D01*
Y991770D01*
X942846Y991354D01*
X942690Y991094D01*
X942534Y990885D01*
X942274Y990729D01*
X942065Y990625D01*
X941909Y990573D01*
X938212D01*
X937795Y990625D01*
X937535Y990781D01*
X937327Y990937D01*
X937171Y991198D01*
X937067Y991406D01*
X937014Y991562D01*
Y991718D01*
Y991770D01*
Y1005204D01*
X931755D01*
X930922Y1005152D01*
X930245Y1005048D01*
X929673Y1004944D01*
X929204Y1004788D01*
X928839Y1004580D01*
X928631Y1004475D01*
X928475Y1004371D01*
X928423Y1004319D01*
X928058Y1003955D01*
X927798Y1003486D01*
X927642Y1003018D01*
X927486Y1002549D01*
X927434Y1002080D01*
X927382Y1001716D01*
Y1001507D01*
Y1001403D01*
Y991198D01*
X927329Y990781D01*
X927225Y990521D01*
X927121Y990312D01*
X926913Y990156D01*
X926757Y990052D01*
X926653Y990000D01*
X923268D01*
X922956Y990052D01*
X922695Y990208D01*
X922487Y990365D01*
X922331Y990625D01*
X922227Y990833D01*
X922122Y990989D01*
X922070Y991145D01*
Y991198D01*
X921862Y992864D01*
X921758Y994478D01*
X921654Y996092D01*
X921550Y997498D01*
Y998123D01*
Y998748D01*
X921498Y999216D01*
Y999685D01*
Y1000050D01*
Y1000310D01*
Y1000466D01*
Y1000518D01*
Y1001560D01*
X921602Y1002497D01*
X921706Y1003382D01*
X921862Y1004215D01*
X922018Y1004996D01*
X922175Y1005725D01*
X922383Y1006350D01*
X922591Y1006923D01*
X922799Y1007443D01*
X923008Y1007912D01*
X923164Y1008277D01*
X923320Y1008589D01*
X923476Y1008849D01*
X923580Y1009006D01*
X923633Y1009110D01*
X923685Y1009162D01*
X924153Y1009682D01*
X924674Y1010203D01*
X925247Y1010568D01*
X925872Y1010932D01*
X926548Y1011245D01*
X927173Y1011505D01*
X928527Y1011869D01*
X929152Y1011973D01*
X929777Y1012078D01*
X930297Y1012130D01*
X930818Y1012182D01*
X931183Y1012234D01*
X949303D01*
X950344Y1012182D01*
D02*
G37*
G36*
X1075000Y1001976D02*
X1053026Y990573D01*
X1051100Y991302D01*
X1049277Y992031D01*
X1047507Y992656D01*
X1045789Y993280D01*
X1044174Y993853D01*
X1042612Y994374D01*
X1041102Y994895D01*
X1039697Y995311D01*
X1038343Y995728D01*
X1037041Y996144D01*
X1035791Y996457D01*
X1034646Y996769D01*
X1033552Y997082D01*
X1032511Y997342D01*
X1031522Y997550D01*
X1030636Y997758D01*
X1029803Y997967D01*
X1029022Y998123D01*
X1028293Y998227D01*
X1027616Y998383D01*
X1026991Y998487D01*
X1026419Y998540D01*
X1025950Y998644D01*
X1025481Y998696D01*
X1025117D01*
X1024752Y998748D01*
X1024492D01*
X1024284Y998800D01*
X1023034D01*
X1022149Y998696D01*
X1021212Y998592D01*
X1020222Y998435D01*
X1018087Y998019D01*
X1015796Y997498D01*
X1013401Y996873D01*
X1010954Y996196D01*
X1008559Y995467D01*
X1006163Y994686D01*
X1003872Y993905D01*
X1001738Y993176D01*
X1000748Y992812D01*
X999811Y992499D01*
X998926Y992135D01*
X998093Y991874D01*
X997364Y991562D01*
X996687Y991354D01*
X996114Y991094D01*
X995593Y990937D01*
X995229Y990781D01*
X994916Y990677D01*
X994760Y990573D01*
X994708D01*
X972735Y1001976D01*
X994708Y1013379D01*
X996635Y1012651D01*
X998457Y1011921D01*
X1000228Y1011297D01*
X1001946Y1010672D01*
X1003560Y1010099D01*
X1005122Y1009578D01*
X1006632Y1009110D01*
X1008038Y1008641D01*
X1009392Y1008224D01*
X1010694Y1007860D01*
X1011943Y1007495D01*
X1013089Y1007183D01*
X1014182Y1006923D01*
X1015224Y1006662D01*
X1016213Y1006454D01*
X1017098Y1006246D01*
X1017931Y1006038D01*
X1018712Y1005881D01*
X1019441Y1005777D01*
X1020118Y1005621D01*
X1020743Y1005517D01*
X1021316Y1005465D01*
X1021784Y1005413D01*
X1022253Y1005309D01*
X1022618D01*
X1022982Y1005257D01*
X1023242D01*
X1023451Y1005204D01*
X1024700D01*
X1025586Y1005309D01*
X1026523Y1005413D01*
X1027512Y1005569D01*
X1029647Y1005985D01*
X1031938Y1006506D01*
X1034333Y1007079D01*
X1036729Y1007808D01*
X1039176Y1008537D01*
X1041571Y1009318D01*
X1043862Y1010047D01*
X1045997Y1010776D01*
X1046986Y1011140D01*
X1047924Y1011505D01*
X1048809Y1011817D01*
X1049642Y1012130D01*
X1050371Y1012390D01*
X1051048Y1012651D01*
X1051621Y1012859D01*
X1052089Y1013015D01*
X1052506Y1013171D01*
X1052766Y1013275D01*
X1052974Y1013379D01*
X1053026D01*
X1075000Y1001976D01*
D02*
G37*
G36*
X957895Y1045559D02*
X958259Y1045403D01*
X958467Y1045246D01*
X958676Y1045038D01*
X958832Y1044778D01*
X958936Y1044621D01*
X958988Y1044465D01*
Y1044413D01*
X959092Y1043736D01*
X959196Y1043007D01*
X959300Y1041393D01*
X959405Y1039727D01*
X959509Y1038113D01*
Y1037384D01*
Y1036707D01*
X959561Y1036082D01*
Y1035509D01*
Y1035093D01*
Y1034728D01*
Y1034520D01*
Y1034468D01*
X959509Y1033062D01*
X959405Y1031760D01*
X959196Y1030563D01*
X958936Y1029417D01*
X958624Y1028376D01*
X958311Y1027438D01*
X957947Y1026553D01*
X957582Y1025772D01*
X957218Y1025043D01*
X956853Y1024470D01*
X956541Y1023950D01*
X956228Y1023533D01*
X955968Y1023169D01*
X955760Y1022960D01*
X955656Y1022804D01*
X955603Y1022752D01*
X954822Y1022023D01*
X953989Y1021398D01*
X953104Y1020825D01*
X952167Y1020357D01*
X951230Y1019992D01*
X950292Y1019628D01*
X949407Y1019368D01*
X948470Y1019159D01*
X947637Y1019003D01*
X946856Y1018847D01*
X946179Y1018743D01*
X945554Y1018691D01*
X945033D01*
X944669Y1018639D01*
X936754D01*
X935400Y1018691D01*
X934151Y1018795D01*
X933005Y1019003D01*
X931912Y1019263D01*
X930870Y1019576D01*
X929933Y1019940D01*
X929100Y1020305D01*
X928371Y1020721D01*
X927694Y1021086D01*
X927069Y1021450D01*
X926600Y1021815D01*
X926184Y1022127D01*
X925872Y1022387D01*
X925663Y1022596D01*
X925507Y1022700D01*
X925455Y1022752D01*
X924778Y1023585D01*
X924153Y1024418D01*
X923633Y1025356D01*
X923164Y1026345D01*
X922799Y1027282D01*
X922487Y1028271D01*
X922175Y1029209D01*
X921966Y1030146D01*
X921810Y1031031D01*
X921706Y1031864D01*
X921602Y1032593D01*
X921550Y1033218D01*
X921498Y1033739D01*
Y1034155D01*
Y1034364D01*
Y1034468D01*
Y1035665D01*
Y1036759D01*
X921550Y1037800D01*
X921602Y1038737D01*
X921654Y1039623D01*
Y1040456D01*
X921706Y1041185D01*
X921758Y1041862D01*
X921810Y1042434D01*
X921862Y1042955D01*
X921914Y1043424D01*
X921966Y1043788D01*
X922018Y1044049D01*
Y1044257D01*
X922070Y1044361D01*
Y1044413D01*
X922227Y1044830D01*
X922435Y1045090D01*
X922643Y1045298D01*
X922904Y1045455D01*
X923164Y1045559D01*
X923320Y1045611D01*
X957530D01*
X957895Y1045559D01*
D02*
G37*
G36*
X931964Y1090391D02*
X932953Y1090183D01*
X933942Y1089922D01*
X934827Y1089506D01*
X935661Y1089089D01*
X936442Y1088568D01*
X937119Y1088048D01*
X937744Y1087527D01*
X938316Y1086954D01*
X938837Y1086434D01*
X939253Y1085913D01*
X939618Y1085496D01*
X939878Y1085080D01*
X940087Y1084819D01*
X940191Y1084611D01*
X940243Y1084559D01*
X944044Y1077842D01*
X944513Y1077113D01*
X945033Y1076488D01*
X945502Y1075916D01*
X945919Y1075447D01*
X946387Y1075082D01*
X946804Y1074718D01*
X947168Y1074457D01*
X947533Y1074249D01*
X948158Y1073937D01*
X948626Y1073781D01*
X948939Y1073729D01*
X949043D01*
X949876Y1073781D01*
X950605Y1073989D01*
X951230Y1074249D01*
X951750Y1074666D01*
X952219Y1075082D01*
X952583Y1075551D01*
X952896Y1076124D01*
X953156Y1076645D01*
X953312Y1077165D01*
X953469Y1077738D01*
X953573Y1078207D01*
X953677Y1078675D01*
Y1079040D01*
X953729Y1079300D01*
Y1079508D01*
Y1079560D01*
X953677Y1081279D01*
X953625Y1082893D01*
X953521Y1084403D01*
X953469Y1085080D01*
X953417Y1085705D01*
X953364Y1086277D01*
X953312Y1086798D01*
Y1087267D01*
X953260Y1087631D01*
X953208Y1087944D01*
X953156Y1088152D01*
Y1088308D01*
Y1088360D01*
X953208Y1088777D01*
X953260Y1089037D01*
X953417Y1089245D01*
X953573Y1089402D01*
X953729Y1089506D01*
X953833Y1089558D01*
X957842D01*
X958051Y1089506D01*
X958207Y1089350D01*
X958363Y1089193D01*
X958467Y1088985D01*
X958571Y1088725D01*
X958624Y1088568D01*
X958676Y1088412D01*
Y1088360D01*
X958988Y1086902D01*
X959196Y1085392D01*
X959352Y1083882D01*
X959457Y1082528D01*
X959509Y1081904D01*
Y1081331D01*
Y1080862D01*
X959561Y1080394D01*
Y1080029D01*
Y1079769D01*
Y1079613D01*
Y1079560D01*
X959509Y1078311D01*
X959405Y1077113D01*
X959300Y1076020D01*
X959092Y1075030D01*
X958832Y1074093D01*
X958571Y1073260D01*
X958311Y1072531D01*
X957999Y1071854D01*
X957738Y1071281D01*
X957478Y1070813D01*
X957218Y1070396D01*
X956957Y1070032D01*
X956749Y1069771D01*
X956645Y1069615D01*
X956541Y1069511D01*
X956489Y1069459D01*
X955916Y1068938D01*
X955291Y1068469D01*
X954666Y1068053D01*
X954041Y1067688D01*
X953417Y1067376D01*
X952792Y1067116D01*
X951594Y1066751D01*
X951073Y1066647D01*
X950605Y1066543D01*
X950136Y1066491D01*
X949772Y1066439D01*
X949459Y1066387D01*
X949043D01*
X947845Y1066491D01*
X946752Y1066699D01*
X945710Y1067011D01*
X944721Y1067480D01*
X943784Y1068001D01*
X942951Y1068626D01*
X942169Y1069250D01*
X941492Y1069928D01*
X940868Y1070552D01*
X940347Y1071177D01*
X939878Y1071802D01*
X939462Y1072323D01*
X939201Y1072791D01*
X938941Y1073104D01*
X938837Y1073364D01*
X938785Y1073416D01*
X935556Y1079300D01*
X935140Y1080029D01*
X934671Y1080654D01*
X934255Y1081227D01*
X933838Y1081695D01*
X933422Y1082060D01*
X933057Y1082424D01*
X932693Y1082685D01*
X932328Y1082893D01*
X931755Y1083205D01*
X931287Y1083362D01*
X930974Y1083414D01*
X930870D01*
X930245Y1083362D01*
X929725Y1083205D01*
X929256Y1083049D01*
X928892Y1082841D01*
X928631Y1082580D01*
X928423Y1082424D01*
X928319Y1082268D01*
X928267Y1082216D01*
X927954Y1081695D01*
X927746Y1081070D01*
X927590Y1080394D01*
X927486Y1079717D01*
X927434Y1079092D01*
X927382Y1078571D01*
Y1078363D01*
Y1078259D01*
Y1078155D01*
Y1078102D01*
Y1076436D01*
X927486Y1074718D01*
X927538Y1073052D01*
X927642Y1071490D01*
X927694Y1070813D01*
X927746Y1070136D01*
X927798Y1069563D01*
X927850Y1069094D01*
X927902Y1068678D01*
Y1068417D01*
X927954Y1068209D01*
Y1068157D01*
X927902Y1067949D01*
X927798Y1067740D01*
X927746Y1067584D01*
X927694Y1067532D01*
X927486Y1067376D01*
X927277Y1067324D01*
X927121Y1067272D01*
X923268D01*
X922956Y1067324D01*
X922747Y1067428D01*
X922591Y1067532D01*
X922487Y1067740D01*
X922383Y1068001D01*
Y1068105D01*
Y1068157D01*
X922070Y1069667D01*
X921862Y1071281D01*
X921706Y1072895D01*
X921602Y1074406D01*
X921550Y1075135D01*
Y1075759D01*
X921498Y1076384D01*
Y1076853D01*
Y1077269D01*
Y1077582D01*
Y1077790D01*
Y1077842D01*
Y1078988D01*
X921602Y1080081D01*
X921706Y1081070D01*
X921914Y1082008D01*
X922122Y1082893D01*
X922383Y1083674D01*
X922643Y1084455D01*
X922956Y1085132D01*
X923320Y1085757D01*
X923685Y1086329D01*
X924466Y1087371D01*
X925299Y1088204D01*
X926184Y1088881D01*
X927069Y1089402D01*
X927902Y1089766D01*
X928683Y1090079D01*
X929412Y1090235D01*
X929985Y1090339D01*
X930454Y1090443D01*
X930870D01*
X931964Y1090391D01*
D02*
G37*
G36*
X958519Y1139285D02*
X958780Y1139128D01*
X958988Y1138972D01*
X959144Y1138764D01*
X959248Y1138504D01*
X959300Y1138347D01*
Y1138191D01*
Y1138139D01*
Y1133193D01*
X959248Y1132880D01*
X959092Y1132672D01*
X958936Y1132516D01*
X958676Y1132411D01*
X958467Y1132359D01*
X958311Y1132307D01*
X922695D01*
X922383Y1132359D01*
X922175Y1132464D01*
X922018Y1132568D01*
X921914Y1132776D01*
X921810Y1133036D01*
Y1133140D01*
Y1133193D01*
Y1138139D01*
X921862Y1138556D01*
X921966Y1138816D01*
X922070Y1139024D01*
X922227Y1139181D01*
X922435Y1139285D01*
X922539Y1139337D01*
X958103D01*
X958519Y1139285D01*
D02*
G37*
G36*
Y1124653D02*
X958780Y1124549D01*
X958988Y1124445D01*
X959144Y1124288D01*
X959248Y1124080D01*
X959300Y1123976D01*
Y1123872D01*
Y1123820D01*
Y1119394D01*
X959248Y1119134D01*
X959092Y1118925D01*
X958936Y1118769D01*
X958676Y1118665D01*
X958467Y1118613D01*
X958311Y1118561D01*
X932901D01*
X932745Y1118509D01*
X932693Y1118405D01*
X932641Y1118300D01*
Y1118248D01*
X932693Y1118092D01*
X932745Y1117988D01*
X932849Y1117936D01*
X932901D01*
X957530Y1106533D01*
X958103Y1106220D01*
X958571Y1105856D01*
X958884Y1105335D01*
X959092Y1104866D01*
X959196Y1104398D01*
X959248Y1103981D01*
X959300Y1103721D01*
Y1103669D01*
Y1103617D01*
Y1098618D01*
X959196Y1097941D01*
X958988Y1097420D01*
X958624Y1097108D01*
X958259Y1096848D01*
X957895Y1096691D01*
X957530Y1096639D01*
X957322Y1096587D01*
X922695D01*
X922383Y1096639D01*
X922175Y1096743D01*
X922018Y1096848D01*
X921914Y1097056D01*
X921810Y1097316D01*
Y1097420D01*
Y1097473D01*
Y1101846D01*
X921862Y1102159D01*
X921966Y1102367D01*
X922070Y1102523D01*
X922227Y1102627D01*
X922539Y1102732D01*
X949303D01*
X949459Y1102784D01*
X949563Y1102888D01*
X949615Y1102940D01*
Y1102992D01*
X949563Y1103200D01*
X949459Y1103252D01*
X949355Y1103304D01*
X949303D01*
X923528Y1115020D01*
X922956Y1115385D01*
X922539Y1115749D01*
X922227Y1116166D01*
X922018Y1116530D01*
X921914Y1116842D01*
X921810Y1117103D01*
Y1117311D01*
Y1117363D01*
Y1122622D01*
X921914Y1123299D01*
X922122Y1123820D01*
X922435Y1124184D01*
X922799Y1124445D01*
X923216Y1124601D01*
X923528Y1124653D01*
X923737Y1124705D01*
X958103D01*
X958519Y1124653D01*
D02*
G37*
G36*
X1005591Y1139285D02*
X1005903Y1139233D01*
X1006163Y1139024D01*
X1006216Y1138972D01*
X1006268Y1138816D01*
X1006372Y1138556D01*
X1006424Y1138139D01*
Y1100076D01*
Y1099972D01*
Y1099712D01*
Y1099295D01*
X1006372Y1098722D01*
X1006320Y1098097D01*
X1006268Y1097316D01*
X1006163Y1096431D01*
X1006059Y1095546D01*
X1005695Y1093619D01*
X1005174Y1091693D01*
X1004862Y1090755D01*
X1004445Y1089870D01*
X1004029Y1089089D01*
X1003508Y1088360D01*
X1003456Y1088308D01*
X1003352Y1088204D01*
X1003143Y1087996D01*
X1002831Y1087787D01*
X1002467Y1087475D01*
X1001998Y1087163D01*
X1001477Y1086798D01*
X1000852Y1086486D01*
X1000123Y1086121D01*
X999290Y1085757D01*
X998405Y1085444D01*
X997416Y1085132D01*
X996322Y1084924D01*
X995177Y1084715D01*
X993927Y1084611D01*
X992573Y1084559D01*
X992261D01*
X991844Y1084611D01*
X991323D01*
X990751Y1084663D01*
X990022Y1084767D01*
X989241Y1084872D01*
X988408Y1085028D01*
X987574Y1085236D01*
X986637Y1085496D01*
X985752Y1085809D01*
X984867Y1086173D01*
X984034Y1086590D01*
X983253Y1087111D01*
X982472Y1087683D01*
X981847Y1088360D01*
X981795Y1088412D01*
X981691Y1088516D01*
X981534Y1088777D01*
X981326Y1089089D01*
X981118Y1089506D01*
X980805Y1089974D01*
X980545Y1090547D01*
X980233Y1091276D01*
X979920Y1092005D01*
X979660Y1092890D01*
X979347Y1093828D01*
X979139Y1094921D01*
X978931Y1096067D01*
X978775Y1097316D01*
X978671Y1098618D01*
X978618Y1100076D01*
Y1138139D01*
Y1138191D01*
Y1138243D01*
X978671Y1138504D01*
X978723Y1138764D01*
X978931Y1139024D01*
X978983Y1139076D01*
X979139Y1139181D01*
X979399Y1139285D01*
X979764Y1139337D01*
X986064D01*
X986273Y1139285D01*
X986585Y1139233D01*
X986845Y1139024D01*
X986898Y1138972D01*
X986950Y1138816D01*
X987054Y1138556D01*
X987106Y1138139D01*
Y1100076D01*
Y1100024D01*
Y1099816D01*
Y1099503D01*
Y1099087D01*
X987158Y1098618D01*
X987210Y1098045D01*
X987314Y1096796D01*
X987522Y1095442D01*
X987835Y1094140D01*
X988043Y1093567D01*
X988303Y1092995D01*
X988564Y1092526D01*
X988876Y1092161D01*
X988928Y1092109D01*
X989084Y1091953D01*
X989397Y1091693D01*
X989761Y1091432D01*
X990282Y1091172D01*
X990959Y1090912D01*
X991740Y1090755D01*
X992677Y1090703D01*
X993042D01*
X993510Y1090807D01*
X994031Y1090912D01*
X994656Y1091068D01*
X995281Y1091328D01*
X995906Y1091693D01*
X996478Y1092161D01*
X996531Y1092265D01*
X996635Y1092370D01*
X996687Y1092526D01*
X996791Y1092786D01*
X996947Y1093046D01*
X997051Y1093411D01*
X997207Y1093828D01*
X997364Y1094296D01*
X997468Y1094869D01*
X997572Y1095494D01*
X997728Y1096275D01*
X997780Y1097056D01*
X997884Y1097993D01*
X997936Y1098982D01*
Y1100076D01*
Y1138139D01*
Y1138191D01*
Y1138243D01*
X997989Y1138504D01*
X998040Y1138764D01*
X998249Y1139024D01*
X998301Y1139076D01*
X998457Y1139181D01*
X998717Y1139285D01*
X999134Y1139337D01*
X1005382D01*
X1005591Y1139285D01*
D02*
G37*
G36*
X1037093D02*
X1037301Y1139181D01*
X1037458Y1139076D01*
X1037510Y1139024D01*
X1037666Y1138764D01*
X1037718Y1138504D01*
X1037770Y1138243D01*
Y1138191D01*
Y1138139D01*
Y1133453D01*
X1037718Y1133245D01*
X1037614Y1133088D01*
X1037562Y1132932D01*
X1037510Y1132880D01*
X1037301Y1132724D01*
X1037093Y1132672D01*
X1036937Y1132620D01*
X1028710D01*
Y1086329D01*
X1028658Y1086121D01*
X1028553Y1085913D01*
X1028502Y1085757D01*
X1028449Y1085705D01*
X1028189Y1085548D01*
X1027877Y1085496D01*
X1027616Y1085444D01*
X1020483D01*
X1020118Y1085496D01*
X1019858Y1085601D01*
X1019702Y1085653D01*
X1019650Y1085705D01*
X1019441Y1085913D01*
X1019389Y1086121D01*
X1019337Y1086277D01*
Y1086329D01*
Y1132620D01*
X1011423D01*
X1011058Y1132672D01*
X1010746Y1132776D01*
X1010589Y1132828D01*
X1010537Y1132880D01*
X1010329Y1133088D01*
X1010277Y1133297D01*
X1010225Y1133401D01*
Y1133453D01*
Y1138139D01*
X1010277Y1138556D01*
X1010381Y1138816D01*
X1010485Y1138972D01*
X1010537Y1139024D01*
X1010798Y1139233D01*
X1011110Y1139285D01*
X1011318Y1139337D01*
X1036885D01*
X1037093Y1139285D01*
D02*
G37*
G36*
X1068543D02*
X1068856Y1139233D01*
X1069116Y1139024D01*
X1069168Y1138972D01*
X1069272Y1138816D01*
X1069376Y1138556D01*
X1069428Y1138139D01*
Y1086329D01*
Y1086277D01*
X1069376Y1086121D01*
X1069272Y1085913D01*
X1069116Y1085705D01*
X1069064Y1085653D01*
X1068908Y1085601D01*
X1068595Y1085496D01*
X1068231Y1085444D01*
X1054016D01*
X1053495Y1085496D01*
X1052870Y1085548D01*
X1052193Y1085653D01*
X1051412Y1085757D01*
X1050579Y1085861D01*
X1048809Y1086277D01*
X1047976Y1086590D01*
X1047091Y1086902D01*
X1046257Y1087319D01*
X1045528Y1087787D01*
X1044799Y1088308D01*
X1044227Y1088933D01*
X1044174Y1088985D01*
X1044122Y1089089D01*
X1043966Y1089350D01*
X1043758Y1089714D01*
X1043550Y1090183D01*
X1043289Y1090807D01*
X1043029Y1091536D01*
X1042769Y1092474D01*
X1042508Y1093515D01*
X1042248Y1094765D01*
X1041988Y1096223D01*
X1041779Y1097837D01*
X1041675Y1098722D01*
X1041571Y1099712D01*
X1041519Y1100701D01*
X1041415Y1101742D01*
X1041363Y1102836D01*
Y1104033D01*
X1041311Y1105231D01*
Y1106533D01*
Y1118248D01*
Y1118300D01*
Y1118405D01*
Y1118613D01*
Y1118873D01*
Y1119186D01*
Y1119550D01*
X1041363Y1119967D01*
Y1120435D01*
X1041415Y1121529D01*
X1041467Y1122778D01*
X1041571Y1124132D01*
X1041675Y1125590D01*
X1042040Y1128506D01*
X1042248Y1129964D01*
X1042560Y1131318D01*
X1042873Y1132620D01*
X1043237Y1133765D01*
X1043706Y1134755D01*
X1043966Y1135171D01*
X1044227Y1135536D01*
X1044279Y1135588D01*
X1044383Y1135692D01*
X1044539Y1135900D01*
X1044799Y1136108D01*
X1045112Y1136421D01*
X1045528Y1136733D01*
X1046049Y1137098D01*
X1046622Y1137462D01*
X1047299Y1137775D01*
X1048080Y1138139D01*
X1048913Y1138452D01*
X1049902Y1138764D01*
X1050944Y1138972D01*
X1052089Y1139181D01*
X1053391Y1139285D01*
X1054745Y1139337D01*
X1068335D01*
X1068543Y1139285D01*
D02*
G37*
%LPC*%
G36*
X953729Y1038894D02*
X927382D01*
Y1037800D01*
Y1036863D01*
Y1036082D01*
Y1035457D01*
Y1035041D01*
Y1034728D01*
Y1034520D01*
Y1034468D01*
Y1033687D01*
X927486Y1032906D01*
X927798Y1031552D01*
X928267Y1030406D01*
X928839Y1029365D01*
X929568Y1028532D01*
X930350Y1027803D01*
X931183Y1027230D01*
X932068Y1026761D01*
X932953Y1026397D01*
X933786Y1026137D01*
X934567Y1025928D01*
X935296Y1025824D01*
X935869Y1025720D01*
X936338Y1025668D01*
X944356D01*
X945190Y1025720D01*
X946023Y1025772D01*
X947429Y1026032D01*
X948678Y1026501D01*
X949772Y1027022D01*
X950657Y1027699D01*
X951438Y1028480D01*
X952063Y1029261D01*
X952531Y1030094D01*
X952948Y1030875D01*
X953208Y1031708D01*
X953417Y1032437D01*
X953573Y1033114D01*
X953677Y1033635D01*
X953729Y1034103D01*
Y1034364D01*
Y1034468D01*
Y1034988D01*
Y1035665D01*
Y1036394D01*
Y1037123D01*
Y1037800D01*
Y1038373D01*
Y1038581D01*
Y1038737D01*
Y1038842D01*
Y1038894D01*
D02*
G37*
G36*
X1060941Y1132880D02*
X1055474D01*
X1054953Y1132828D01*
X1054328Y1132724D01*
X1053651Y1132516D01*
X1052974Y1132255D01*
X1052349Y1131891D01*
X1051829Y1131422D01*
X1051777Y1131318D01*
X1051673Y1131214D01*
X1051569Y1130954D01*
X1051412Y1130693D01*
X1051256Y1130277D01*
X1051100Y1129808D01*
X1050944Y1129183D01*
X1050787Y1128454D01*
X1050631Y1127569D01*
X1050475Y1126527D01*
X1050319Y1125382D01*
X1050215Y1124028D01*
X1050110Y1122466D01*
X1050059Y1120748D01*
Y1119810D01*
Y1118821D01*
Y1105960D01*
Y1105908D01*
Y1105856D01*
Y1105699D01*
Y1105491D01*
Y1104971D01*
Y1104242D01*
X1050110Y1103409D01*
X1050163Y1102419D01*
X1050215Y1101378D01*
X1050267Y1100284D01*
X1050475Y1098045D01*
X1050631Y1096952D01*
X1050787Y1095963D01*
X1050996Y1095025D01*
X1051256Y1094192D01*
X1051516Y1093515D01*
X1051829Y1093046D01*
X1051881Y1092995D01*
X1052037Y1092838D01*
X1052349Y1092578D01*
X1052766Y1092318D01*
X1053339Y1092057D01*
X1054068Y1091797D01*
X1054901Y1091641D01*
X1055942Y1091589D01*
X1060941D01*
Y1132880D01*
D02*
G37*
%LPD*%
D56*
X1133290Y871080D02*
X1136623Y874412D01*
X1143287D01*
X1146619Y871080D01*
Y867748D01*
X1143287Y864416D01*
X1136623D01*
X1133290Y861083D01*
Y857751D01*
X1136623Y854419D01*
X1143287D01*
X1146619Y857751D01*
X1126626Y854419D02*
Y874412D01*
X1119961Y867748D01*
X1113297Y874412D01*
Y854419D01*
X1106632D02*
Y874412D01*
X1096636D01*
X1093303Y871080D01*
Y864416D01*
X1096636Y861083D01*
X1106632D01*
X1073310Y871080D02*
X1076642Y874412D01*
X1083307D01*
X1086639Y871080D01*
Y867748D01*
X1083307Y864416D01*
X1076642D01*
X1073310Y861083D01*
Y857751D01*
X1076642Y854419D01*
X1083307D01*
X1086639Y857751D01*
X1046652Y874412D02*
Y854419D01*
X1036655D01*
X1033323Y857751D01*
Y871080D01*
X1036655Y874412D01*
X1046652D01*
X1016661Y854419D02*
X1023326D01*
X1026658Y857751D01*
Y864416D01*
X1023326Y867748D01*
X1016661D01*
X1013329Y864416D01*
Y861083D01*
X1026658D01*
X1006665Y854419D02*
Y867748D01*
X1003332D01*
X1000000Y864416D01*
Y854419D01*
Y864416D01*
X996668Y867748D01*
X993335Y864416D01*
Y854419D01*
X983339D02*
X976674D01*
X973342Y857751D01*
Y864416D01*
X976674Y867748D01*
X983339D01*
X986671Y864416D01*
Y857751D01*
X983339Y854419D01*
X946684Y874412D02*
Y854419D01*
X936687D01*
X933355Y857751D01*
Y861083D01*
X936687Y864416D01*
X946684D01*
X936687D01*
X933355Y867748D01*
Y871080D01*
X936687Y874412D01*
X946684D01*
X923358Y854419D02*
X916693D01*
X913361Y857751D01*
Y864416D01*
X916693Y867748D01*
X923358D01*
X926690Y864416D01*
Y857751D01*
X923358Y854419D01*
X903364Y867748D02*
X896700D01*
X893368Y864416D01*
Y854419D01*
X903364D01*
X906697Y857751D01*
X903364Y861083D01*
X893368D01*
X886703Y867748D02*
Y854419D01*
Y861083D01*
X883371Y864416D01*
X880039Y867748D01*
X876706D01*
X853381Y874412D02*
Y854419D01*
X863377D01*
X866710Y857751D01*
Y864416D01*
X863377Y867748D01*
X853381D01*
X1101634Y823227D02*
Y843220D01*
X1091637D01*
X1088305Y839888D01*
Y833223D01*
X1091637Y829891D01*
X1101634D01*
X1094969D02*
X1088305Y823227D01*
X1071644D02*
X1078308D01*
X1081640Y826559D01*
Y833223D01*
X1078308Y836556D01*
X1071644D01*
X1068311Y833223D01*
Y829891D01*
X1081640D01*
X1061647Y836556D02*
X1054982Y823227D01*
X1048318Y836556D01*
X1041653Y823227D02*
X1034989D01*
X1038321D01*
Y836556D01*
X1041653D01*
X1024992Y823227D02*
X1014995D01*
X1011663Y826559D01*
X1014995Y829891D01*
X1021660D01*
X1024992Y833223D01*
X1021660Y836556D01*
X1011663D01*
X1004998Y823227D02*
X998334D01*
X1001666D01*
Y836556D01*
X1004998D01*
X985005Y823227D02*
X978340D01*
X975008Y826559D01*
Y833223D01*
X978340Y836556D01*
X985005D01*
X988337Y833223D01*
Y826559D01*
X985005Y823227D01*
X968344D02*
Y836556D01*
X958347D01*
X955014Y833223D01*
Y823227D01*
X928356D02*
X921692D01*
X925024D01*
Y843220D01*
X928356Y839888D01*
X911695Y823227D02*
Y836556D01*
X905031Y843220D01*
X898366Y836556D01*
Y823227D01*
Y833223D01*
X911695D01*
X1069977Y812028D02*
X1083307D01*
Y802031D01*
X1076642D01*
X1083307D01*
Y792034D01*
X1053316D02*
X1059981D01*
X1063313Y795367D01*
Y802031D01*
X1059981Y805363D01*
X1053316D01*
X1049984Y802031D01*
Y798699D01*
X1063313D01*
X1043319Y812028D02*
Y792034D01*
X1033323D01*
X1029990Y795367D01*
Y798699D01*
Y802031D01*
X1033323Y805363D01*
X1043319D01*
X1023326Y792034D02*
Y795367D01*
X1019994D01*
Y792034D01*
X1023326D01*
X973342D02*
X986671D01*
X973342Y805363D01*
Y808696D01*
X976674Y812028D01*
X983339D01*
X986671Y808696D01*
X966677D02*
X963345Y812028D01*
X956681D01*
X953348Y808696D01*
Y795367D01*
X956681Y792034D01*
X963345D01*
X966677Y795367D01*
Y808696D01*
X946684Y792034D02*
X940019D01*
X943352D01*
Y812028D01*
X946684Y808696D01*
X930023D02*
X926690Y812028D01*
X920026D01*
X916693Y808696D01*
Y805363D01*
X920026Y802031D01*
X916693Y798699D01*
Y795367D01*
X920026Y792034D01*
X926690D01*
X930023Y795367D01*
Y798699D01*
X926690Y802031D01*
X930023Y805363D01*
Y808696D01*
X926690Y802031D02*
X920026D01*
M02*
