G04 Layer_Physical_Order=1*
G04 Layer_Color=255*
%FSLAX44Y44*%
%MOMM*%
G71*
G01*
G75*
%ADD10R,0.8000X0.5000*%
%ADD11R,5.5000X4.0000*%
%ADD12R,1.2000X1.2000*%
%ADD13R,0.5500X1.3000*%
%ADD14R,0.6500X1.7500*%
%ADD15R,0.6500X1.2000*%
%ADD16R,1.0000X1.3000*%
%ADD17R,1.3000X1.0000*%
%ADD18R,0.9000X1.6000*%
%ADD19R,5.4500X6.6000*%
%ADD20C,0.6000*%
%ADD21C,0.2540*%
%ADD22R,1.5000X1.5000*%
%ADD23C,1.5000*%
%ADD24C,1.0000*%
%ADD25R,2.6000X3.0000*%
%ADD26C,1.7000*%
%ADD27C,9.0000*%
%ADD28C,2.0000*%
%ADD29C,1.2000*%
%ADD30C,3.2000*%
%ADD31C,1.2700*%
%ADD32C,0.5000*%
G36*
X731050Y1050000D02*
X730000Y1048950D01*
Y1044000D01*
X732000D01*
Y1022000D01*
X728000Y1018000D01*
X714000D01*
Y1042000D01*
X716000Y1044000D01*
X720000D01*
X726000Y1050000D01*
X731050Y1050000D01*
D02*
G37*
G36*
X832000Y1204000D02*
Y1140000D01*
X736000D01*
X730000Y1134000D01*
X712000D01*
Y1142000D01*
X724000D01*
X792000Y1210000D01*
X826000D01*
X832000Y1204000D01*
D02*
G37*
G36*
X1268000Y1173000D02*
X1278000D01*
X1285000Y1166000D01*
X1292000D01*
Y1158500D01*
X1291833Y1158333D01*
X1290000D01*
X1288342Y1158003D01*
X1287963Y1157750D01*
X1284750D01*
Y1157500D01*
X1182500D01*
X1166500Y1157500D01*
X1165000Y1159000D01*
Y1176000D01*
X1166000Y1177000D01*
X1264000D01*
X1268000Y1173000D01*
D02*
G37*
G36*
X1412000Y1062000D02*
X1413000D01*
Y833000D01*
X1412000Y832000D01*
X1379925Y830056D01*
X1379000Y830927D01*
Y1046000D01*
X1308000Y1117000D01*
Y1136511D01*
X1310489Y1139000D01*
X1335000D01*
X1412000Y1062000D01*
D02*
G37*
G36*
X764000Y953500D02*
X850500D01*
Y950500D01*
X762000Y950000D01*
X705650Y1006350D01*
Y1010500D01*
X707000D01*
X764000Y953500D01*
D02*
G37*
G36*
X702000Y1012000D02*
X656000D01*
X627173Y983173D01*
X626000Y983659D01*
Y1044000D01*
X702000D01*
Y1012000D01*
D02*
G37*
G36*
X644000Y1382000D02*
X853000D01*
Y1317000D01*
X826000Y1290000D01*
X781000Y1299000D01*
X715000Y1365000D01*
X608000Y1365000D01*
Y1382000D01*
X621000Y1395000D01*
Y1397000D01*
X629000D01*
X644000Y1382000D01*
D02*
G37*
G36*
X1396816Y1381816D02*
X1355000Y1340000D01*
X1189000D01*
X1129786Y1379800D01*
X1130152Y1381016D01*
X1396326Y1382988D01*
X1396816Y1381816D01*
D02*
G37*
G36*
X1250000Y1398001D02*
X736000Y1398000D01*
Y1417000D01*
X1250000D01*
Y1398001D01*
D02*
G37*
G36*
X708000Y1172000D02*
X700000D01*
X688000Y1160000D01*
X682898Y1160000D01*
X682000Y1160898D01*
Y1183000D01*
X708000D01*
Y1172000D01*
D02*
G37*
G36*
X723997Y1326000D02*
X726000Y1323997D01*
X726000Y1240250D01*
X727500D01*
Y1235250D01*
Y1190250D01*
X680500D01*
Y1197421D01*
X624000Y1197944D01*
Y821000D01*
X619000Y816000D01*
X615000Y820000D01*
X562000D01*
Y983098D01*
X514000Y1017504D01*
X514000Y1190000D01*
Y1324000D01*
X516000Y1326000D01*
X723997Y1326000D01*
D02*
G37*
G36*
X1466286Y1194000D02*
X1242190Y1194000D01*
X1208191Y1236000D01*
X1173000D01*
X1144364Y1194000D01*
X1020000Y1194000D01*
X1020000Y1320000D01*
X1466286D01*
Y1194000D01*
D02*
G37*
D10*
X1290000Y1163500D02*
D03*
Y1154000D02*
D03*
Y1144500D02*
D03*
X1314000D02*
D03*
Y1154000D02*
D03*
Y1163500D02*
D03*
D11*
X1192000Y1279350D02*
D03*
Y1194350D02*
D03*
X808000Y1279350D02*
D03*
Y1194350D02*
D03*
D12*
X772000Y1158000D02*
D03*
Y1130000D02*
D03*
X668000Y1106000D02*
D03*
Y1078000D02*
D03*
X1194000Y1344000D02*
D03*
Y1316000D02*
D03*
D13*
X1142500Y810000D02*
D03*
X1152000D02*
D03*
X1161500D02*
D03*
Y786000D02*
D03*
X1152000D02*
D03*
X1142500D02*
D03*
X858500Y810000D02*
D03*
X868000D02*
D03*
X877500D02*
D03*
Y786000D02*
D03*
X868000D02*
D03*
X858500D02*
D03*
D14*
X692950Y1060750D02*
D03*
X705650D02*
D03*
X718350D02*
D03*
X731050D02*
D03*
X692950Y1115250D02*
D03*
X705650D02*
D03*
X718350D02*
D03*
X731050D02*
D03*
D15*
X1274950Y1181750D02*
D03*
X1287650D02*
D03*
X1300350D02*
D03*
X1313050D02*
D03*
X1314066Y1237940D02*
D03*
X1300604D02*
D03*
X1287396D02*
D03*
X1273934D02*
D03*
X684950Y1177750D02*
D03*
X697650D02*
D03*
X710350D02*
D03*
X723050D02*
D03*
X724066Y1233940D02*
D03*
X710604D02*
D03*
X697396D02*
D03*
X683934D02*
D03*
D16*
X668000Y1158000D02*
D03*
X684000D02*
D03*
X858000Y748000D02*
D03*
X842000D02*
D03*
X1168000Y834000D02*
D03*
X1152000D02*
D03*
X868000D02*
D03*
X884000D02*
D03*
X1154000Y748000D02*
D03*
X1138000D02*
D03*
X698000Y1018000D02*
D03*
X714000D02*
D03*
X698000Y1038000D02*
D03*
X714000D02*
D03*
X720000Y1158000D02*
D03*
X704000D02*
D03*
X714000Y1138000D02*
D03*
X698000D02*
D03*
D17*
X1237334Y1382001D02*
D03*
Y1398001D02*
D03*
X1200000Y1382001D02*
D03*
Y1398001D02*
D03*
X742664Y1382000D02*
D03*
Y1398000D02*
D03*
X777332Y1382000D02*
D03*
Y1398000D02*
D03*
X1292000Y748000D02*
D03*
Y764000D02*
D03*
X806000Y768000D02*
D03*
Y784000D02*
D03*
X710000D02*
D03*
Y768000D02*
D03*
X1174000Y758000D02*
D03*
Y742000D02*
D03*
X1332000Y1180000D02*
D03*
Y1164000D02*
D03*
X1370000Y1180000D02*
D03*
Y1164000D02*
D03*
X1350000Y1180000D02*
D03*
Y1164000D02*
D03*
X1256000Y1146000D02*
D03*
Y1162000D02*
D03*
X1274000Y1146000D02*
D03*
Y1162000D02*
D03*
X1194000Y768000D02*
D03*
Y784000D02*
D03*
X890000Y758000D02*
D03*
Y742000D02*
D03*
D18*
X735200Y757000D02*
D03*
X780800D02*
D03*
X1219200D02*
D03*
X1264800D02*
D03*
D19*
X758000Y818000D02*
D03*
X1242000D02*
D03*
D20*
X1237334Y1382001D02*
X1382001D01*
X1132000D02*
X1194000D01*
X618000Y1382000D02*
X742664D01*
X624000Y824000D02*
Y1193000D01*
X600000Y800000D02*
X632000Y768000D01*
X1310000Y800000D02*
X1400000D01*
X1257500Y1163500D02*
X1290000D01*
X812000Y1382000D02*
X846668D01*
X1200000Y1382001D02*
X1237334D01*
X1194000D02*
X1200000D01*
X1176000Y1162000D02*
X1256000D01*
X730000Y1020000D02*
X732500D01*
X728000Y1018000D02*
X730000Y1020000D01*
X714000Y1018000D02*
X728000D01*
X1176000Y1162000D02*
X1176000Y1162000D01*
X1174000Y1160000D02*
X1176000Y1162000D01*
Y1162000D01*
Y1162000D02*
Y1162000D01*
X1100000Y1160000D02*
X1174000D01*
X1100000Y1310000D02*
X1150000D01*
X810000Y1160000D02*
X900000D01*
X820000Y1310000D02*
X900000D01*
X1192000Y1279350D02*
X1194000Y1281350D01*
Y1316000D01*
X762000Y1120000D02*
X772000Y1130000D01*
X731050Y1089050D02*
X762000Y1120000D01*
X754000Y1128000D02*
X762000Y1120000D01*
X731050Y1060750D02*
Y1089050D01*
Y1047000D02*
Y1055051D01*
Y1038950D02*
Y1047000D01*
X726000Y1050000D02*
X731050Y1055051D01*
X714000Y1038000D02*
X726000Y1050000D01*
X728050D02*
X731050Y1047000D01*
X726000Y1050000D02*
X728050D01*
X731050Y1055051D02*
Y1060750D01*
X714000Y1018000D02*
Y1038000D01*
X721000Y757000D02*
X735200D01*
X734000Y794000D02*
X758000Y818000D01*
X726000Y794000D02*
X734000D01*
X716000Y784000D02*
X726000Y794000D01*
X710000Y784000D02*
X716000D01*
X806000D02*
X822000D01*
X877500Y814000D02*
Y819500D01*
Y810000D02*
Y814000D01*
X879500Y812000D01*
X891500D01*
X877500Y819500D02*
X884000Y826000D01*
Y834000D01*
X1142000Y950000D02*
X1162153D01*
X1399500Y835500D02*
X1400000Y835000D01*
X1399500Y835500D02*
Y1054000D01*
X1316250Y1137250D02*
X1399500Y1054000D01*
X1308739Y1137250D02*
X1316250D01*
X1305750Y1140240D02*
X1308739Y1137250D01*
X1305750Y1140240D02*
Y1154503D01*
X1299003Y1161250D02*
X1305750Y1154503D01*
X1292250Y1161250D02*
X1299003D01*
X1290000Y1163500D02*
X1292250Y1161250D01*
X1300000Y1087847D02*
Y1135737D01*
X1298500Y1137237D02*
Y1151500D01*
Y1137237D02*
X1300000Y1135737D01*
X1296000Y1154000D02*
X1298500Y1151500D01*
X1290000Y1154000D02*
X1296000D01*
X1162153Y950000D02*
X1300000Y1087847D01*
X1350000Y1180000D02*
X1350000Y1180000D01*
X1370000D01*
X1332000Y1180000D02*
X1332000Y1180000D01*
X1035000Y1400000D02*
X1036999Y1398001D01*
X1132000D01*
X846668Y1398000D02*
X962999D01*
X812000D02*
X846668D01*
X777332D02*
X812000D01*
X742664D02*
X777332D01*
X962999D02*
X965000Y1400000D01*
X1206669Y1398001D02*
X1244003D01*
X1169334D02*
X1206669D01*
X1132000D02*
X1169334D01*
X742664Y1398000D02*
X742665Y1398001D01*
X1194000Y1382001D02*
X1194000Y1382001D01*
Y1344000D02*
Y1382001D01*
X1382001Y1382001D02*
X1400000Y1400000D01*
X1176000Y1178349D02*
X1192000Y1194350D01*
X1314000Y1144500D02*
X1332500D01*
X1350000Y1162000D01*
Y1164000D01*
X1331500Y1163500D02*
X1332000Y1164000D01*
X1314000Y1163500D02*
X1331500D01*
X1287650Y1181750D02*
X1300350D01*
X1274950D02*
X1287650D01*
X1332000Y1180000D02*
X1350000D01*
X1314800D02*
X1332000D01*
X1313050Y1181750D02*
X1314800Y1180000D01*
X1256000Y1146000D02*
X1257500Y1144500D01*
X1256000Y1162000D02*
X1257500Y1163500D01*
X1142000Y950000D02*
X1142500Y949500D01*
Y810000D02*
Y949500D01*
X1194000Y768000D02*
X1218000D01*
X1192000D02*
X1194000D01*
X1218000D02*
X1219200Y766800D01*
X1218000Y768000D02*
X1224000Y774000D01*
X1284000D01*
X1310000Y800000D01*
X808000Y1194000D02*
Y1194350D01*
X698000Y1028000D02*
Y1038000D01*
Y1018000D02*
Y1028000D01*
X808000Y1378000D02*
X812000Y1382000D01*
X808000Y1279350D02*
Y1378000D01*
X777332Y1382000D02*
X812000D01*
X742664D02*
X777332D01*
X600000Y1400000D02*
X618000Y1382000D01*
X720000Y1158000D02*
X723050Y1161050D01*
Y1177750D01*
X697650D02*
X710350D01*
X684950D02*
X697650D01*
X714000Y1138000D02*
X718350Y1133650D01*
Y1115250D02*
Y1133650D01*
X692950Y1132950D02*
X698000Y1138000D01*
X692950Y1115250D02*
Y1132950D01*
X679250Y1115250D02*
X692950D01*
X670000Y1106000D02*
X679250Y1115250D01*
X668000Y1106000D02*
X670000D01*
X668000Y1078000D02*
X682000Y1064000D01*
X689700D01*
X692950Y1060750D01*
Y1051050D02*
Y1060750D01*
Y1051050D02*
X698000Y1046000D01*
Y1038000D02*
Y1046000D01*
X858000Y950000D02*
X858500Y949500D01*
Y810000D02*
Y949500D01*
X710000Y768000D02*
X721000Y757000D01*
X632000Y768000D02*
X710000D01*
X772000Y1130000D02*
X790000D01*
X772000Y1118000D02*
Y1130000D01*
Y1118000D02*
X774000Y1116000D01*
X1174000Y728000D02*
Y742000D01*
X1167000Y721000D02*
X1174000Y728000D01*
X868000Y774000D02*
Y786000D01*
Y774000D02*
X868000Y774000D01*
X1152000Y776000D02*
Y786000D01*
X1147999Y771999D02*
X1152000Y776000D01*
X1147999Y769999D02*
Y771999D01*
X1292000Y764000D02*
X1304000Y776000D01*
X1168000Y816500D02*
Y834000D01*
X1176000Y1132000D02*
Y1146000D01*
X1274000Y1132000D02*
Y1144500D01*
Y1146000D01*
X1257500Y1144500D02*
X1274000D01*
X1290000D01*
X1370000Y1150000D02*
Y1164000D01*
X1219200Y757000D02*
Y766800D01*
X678000Y1028000D02*
X698000D01*
X633000Y1202000D02*
X684000D01*
X1161500Y810000D02*
X1169750Y818250D01*
X1194000Y784000D02*
Y794000D01*
X1182000Y807000D02*
X1190000Y815000D01*
X1182000Y806000D02*
Y807000D01*
X1169750Y818250D02*
X1182000Y806000D01*
X1194000Y794000D01*
X1170000Y1168000D02*
X1176000Y1162000D01*
X1176000Y1162000D01*
X1176000Y1162000D02*
Y1178349D01*
X624000Y1193000D02*
X633000Y1202000D01*
X883000Y721000D02*
X890000Y728000D01*
Y742000D01*
X867999Y770000D02*
X870000D01*
D21*
X1152000Y806686D02*
Y834000D01*
X868000Y800000D02*
Y834000D01*
X1166000Y776544D02*
X1172000Y782544D01*
X1174000Y758000D02*
Y772000D01*
X1172000Y782544D02*
Y788314D01*
X1161340Y773340D02*
Y785840D01*
X1161500Y786000D01*
X1160000Y772000D02*
X1161340Y773340D01*
X1152000Y806686D02*
X1163666Y795020D01*
X1165294D01*
X1172000Y788314D01*
X1138000Y725001D02*
X1142000Y721000D01*
X1138000Y725001D02*
Y748000D01*
X1154000D02*
X1155520Y749520D01*
X705650Y1006350D02*
Y1060750D01*
Y1006350D02*
X762000Y950000D01*
X858000D01*
X704000Y1158000D02*
X705650Y1156350D01*
Y1115250D02*
Y1156350D01*
X712000Y1140000D02*
X714000Y1138000D01*
X712000Y1140000D02*
Y1172000D01*
X710350Y1173650D02*
X712000Y1172000D01*
X710350Y1173650D02*
Y1177750D01*
X684950Y1163050D02*
Y1177750D01*
X866000Y798000D02*
X868000Y800000D01*
X856000Y798000D02*
X866000D01*
X842000Y784000D02*
X856000Y798000D01*
X842000Y748000D02*
Y784000D01*
X858000Y721000D02*
Y748000D01*
X822000Y768000D02*
X842000Y748000D01*
X806000Y768000D02*
X822000D01*
X795000Y757000D02*
X806000Y768000D01*
X780800Y757000D02*
X795000D01*
X694000Y1148000D02*
X704000Y1158000D01*
X678000Y1148000D02*
X694000D01*
X668000Y1158000D02*
X678000Y1148000D01*
X857129Y748871D02*
X858000Y748000D01*
X857129Y748871D02*
Y784629D01*
X858500Y786000D01*
X1166000Y770000D02*
Y776544D01*
X1154000Y748000D02*
Y758000D01*
X1166000Y770000D01*
X1138000Y772545D02*
X1142500Y777045D01*
Y786000D01*
X1138000Y748000D02*
Y772545D01*
X1290000Y748000D02*
X1292000D01*
X1288000Y750000D02*
X1290000Y748000D01*
X1264000Y752000D02*
X1264800Y752800D01*
X1226480Y746480D02*
X1232000Y752000D01*
X1264000D01*
X1155520Y749520D02*
X1206480D01*
X1209520Y746480D01*
X1226480D01*
X1274000Y750000D02*
X1288000D01*
X1272000Y752000D02*
X1274000Y750000D01*
X1264800Y754200D02*
Y757000D01*
Y754200D02*
X1267000Y752000D01*
X1272000D01*
X1264800Y752800D02*
Y754200D01*
X877500Y782500D02*
Y786000D01*
X890000Y758000D02*
Y770000D01*
X877500Y782500D02*
X890000Y770000D01*
D22*
X900000Y1310000D02*
D03*
X1100000D02*
D03*
X900000Y1160000D02*
D03*
X1100000D02*
D03*
D23*
X1000000Y1260600D02*
D03*
Y1235200D02*
D03*
D24*
X850000Y1377500D02*
D03*
Y1402500D02*
D03*
X617500Y900000D02*
D03*
X642500D02*
D03*
X1382500D02*
D03*
X1357500D02*
D03*
X1150000Y1377500D02*
D03*
Y1402500D02*
D03*
D25*
X906000Y651001D02*
D03*
X810000D02*
D03*
X1190000D02*
D03*
X1094000D02*
D03*
D26*
X858000Y721001D02*
D03*
X833000D02*
D03*
X883000D02*
D03*
X1142000D02*
D03*
X1117000D02*
D03*
X1167000D02*
D03*
D27*
X1000000Y1400000D02*
D03*
X600000Y800000D02*
D03*
X1400000D02*
D03*
Y1400000D02*
D03*
X600000D02*
D03*
D28*
X889250Y981250D02*
D03*
Y918750D02*
D03*
X826750Y981250D02*
D03*
Y918750D02*
D03*
X858000Y950000D02*
D03*
X1173250Y981250D02*
D03*
Y918750D02*
D03*
X1110750Y981250D02*
D03*
Y918750D02*
D03*
X1142000Y950000D02*
D03*
D29*
X1024000Y1424000D02*
D03*
Y1376000D02*
D03*
X976000D02*
D03*
Y1424000D02*
D03*
X1035000Y1400000D02*
D03*
X1000000Y1365000D02*
D03*
X965000Y1400000D02*
D03*
X1000000Y1435000D02*
D03*
X600000Y835000D02*
D03*
X565000Y800000D02*
D03*
X600000Y765000D02*
D03*
X635000Y800000D02*
D03*
X576000Y824000D02*
D03*
Y776000D02*
D03*
X624000D02*
D03*
Y824000D02*
D03*
X1400000Y835000D02*
D03*
X1365000Y800000D02*
D03*
X1400000Y765000D02*
D03*
X1435000Y800000D02*
D03*
X1376000Y824000D02*
D03*
Y776000D02*
D03*
X1424000D02*
D03*
Y824000D02*
D03*
X1400000Y1435000D02*
D03*
X1365000Y1400000D02*
D03*
X1400000Y1365000D02*
D03*
X1435000Y1400000D02*
D03*
X1376000Y1424000D02*
D03*
Y1376000D02*
D03*
X1424000D02*
D03*
Y1424000D02*
D03*
X600000Y1435000D02*
D03*
X565000Y1400000D02*
D03*
X600000Y1365000D02*
D03*
X635000Y1400000D02*
D03*
X576000Y1424000D02*
D03*
Y1376000D02*
D03*
X624000D02*
D03*
Y1424000D02*
D03*
D30*
X1000000Y1400000D02*
D03*
X600000Y800000D02*
D03*
X1400000D02*
D03*
Y1400000D02*
D03*
X600000D02*
D03*
D31*
X1222000Y1406000D02*
D03*
X731050Y1020000D02*
D03*
X754000Y1128000D02*
D03*
X731050Y1038950D02*
D03*
X774000Y798000D02*
D03*
X744000D02*
D03*
X822000Y784000D02*
D03*
X891500Y812000D02*
D03*
X790000Y1130000D02*
D03*
X774000Y1116000D02*
D03*
X1147999Y769999D02*
D03*
X1304000Y776000D02*
D03*
X1176000Y1132000D02*
D03*
X1274000D02*
D03*
X1370000Y1150000D02*
D03*
X1188000Y1406000D02*
D03*
X794000D02*
D03*
X761000D02*
D03*
X1190000Y815000D02*
D03*
X744000Y816000D02*
D03*
X774000D02*
D03*
X744000Y834000D02*
D03*
X774000D02*
D03*
X1258000Y832000D02*
D03*
X1228000D02*
D03*
X1258000Y814000D02*
D03*
X1228000D02*
D03*
Y796000D02*
D03*
X1258000D02*
D03*
X870000Y770000D02*
D03*
D32*
X1174000Y772000D02*
D03*
X1160000D02*
D03*
M02*
