G04 Layer_Color=32896*
%FSLAX44Y44*%
%MOMM*%
G71*
G01*
G75*
%ADD58C,0.3000*%
G36*
X1075000Y1022499D02*
X1053056Y1011111D01*
X1049306Y1012500D01*
X1045834Y1013888D01*
X1042639Y1014861D01*
X1039723Y1015833D01*
X1037084Y1016666D01*
X1034723Y1017361D01*
X1032501Y1017916D01*
X1030695Y1018333D01*
X1029028Y1018611D01*
X1027639Y1018888D01*
X1026389Y1019027D01*
X1025556Y1019166D01*
X1024723Y1019305D01*
X1023889D01*
X1022223Y1019166D01*
X1020278Y1018888D01*
X1018056Y1018611D01*
X1015834Y1018055D01*
X1010973Y1016666D01*
X1006112Y1015277D01*
X1003890Y1014444D01*
X1001806Y1013750D01*
X999862Y1013055D01*
X998056Y1012361D01*
X996668Y1011805D01*
X995695Y1011527D01*
X995001Y1011250D01*
X994723Y1011111D01*
X972779Y1022499D01*
X994723Y1033888D01*
X998473Y1032499D01*
X1001945Y1031249D01*
X1005140Y1030138D01*
X1008056Y1029166D01*
X1010695Y1028333D01*
X1013056Y1027638D01*
X1015278Y1027222D01*
X1017084Y1026666D01*
X1018751Y1026388D01*
X1020139Y1026111D01*
X1021251Y1025972D01*
X1022223Y1025833D01*
X1022917Y1025694D01*
X1023889D01*
X1025556Y1025833D01*
X1027501Y1026111D01*
X1029723Y1026388D01*
X1031945Y1026944D01*
X1036806Y1028333D01*
X1041528Y1029861D01*
X1043889Y1030555D01*
X1045973Y1031249D01*
X1047917Y1031944D01*
X1049723Y1032638D01*
X1051111Y1033194D01*
X1052084Y1033472D01*
X1052778Y1033749D01*
X1053056Y1033888D01*
X1075000Y1022499D01*
D02*
G37*
G36*
X958890Y1052499D02*
X959168Y1052221D01*
X959307Y1051944D01*
Y1051805D01*
Y1046805D01*
X959168Y1046110D01*
X958751Y1045833D01*
X958335Y1045694D01*
X922641D01*
X922085Y1045833D01*
X921946Y1046249D01*
X921807Y1046666D01*
Y1046805D01*
Y1051805D01*
X921946Y1052360D01*
X922224Y1052499D01*
X922502Y1052638D01*
X958196D01*
X958890Y1052499D01*
D02*
G37*
G36*
X1075000Y1050694D02*
X1053056Y1039166D01*
X1049306Y1040555D01*
X1045834Y1041944D01*
X1042639Y1042916D01*
X1039723Y1043888D01*
X1037084Y1044722D01*
X1034723Y1045416D01*
X1032501Y1045971D01*
X1030695Y1046388D01*
X1029028Y1046666D01*
X1027639Y1046944D01*
X1026389Y1047083D01*
X1025556Y1047221D01*
X1024723Y1047360D01*
X1023889D01*
X1022223Y1047221D01*
X1020278Y1046944D01*
X1018056Y1046666D01*
X1015834Y1046110D01*
X1010973Y1044722D01*
X1006112Y1043333D01*
X1003890Y1042499D01*
X1001806Y1041805D01*
X999862Y1041110D01*
X998056Y1040416D01*
X996668Y1039860D01*
X995695Y1039583D01*
X995001Y1039305D01*
X994723Y1039166D01*
X972779Y1050694D01*
X994723Y1062082D01*
X998473Y1060694D01*
X1001945Y1059444D01*
X1005140Y1058332D01*
X1008056Y1057360D01*
X1010695Y1056527D01*
X1013056Y1055832D01*
X1015278Y1055416D01*
X1017084Y1054860D01*
X1018751Y1054582D01*
X1020139Y1054305D01*
X1021251Y1054166D01*
X1022223Y1054027D01*
X1022917Y1053888D01*
X1023889D01*
X1025556Y1054027D01*
X1027501Y1054305D01*
X1029723Y1054582D01*
X1031945Y1055138D01*
X1036806Y1056527D01*
X1041528Y1058055D01*
X1043889Y1058749D01*
X1045973Y1059444D01*
X1047917Y1060138D01*
X1049723Y1060832D01*
X1051111Y1061388D01*
X1052084Y1061666D01*
X1052778Y1061944D01*
X1053056Y1062082D01*
X1075000Y1050694D01*
D02*
G37*
G36*
X951390Y1004444D02*
X953057Y1004166D01*
X954446Y1003611D01*
X955557Y1003055D01*
X956390Y1002500D01*
X956946Y1001944D01*
X957224Y1001666D01*
X957363Y1001527D01*
X958057Y1000278D01*
X958613Y998889D01*
X959029Y997500D01*
X959307Y996111D01*
X959446Y994861D01*
X959585Y993889D01*
Y993194D01*
Y992916D01*
Y991111D01*
X959446Y989444D01*
Y987917D01*
X959307Y986528D01*
X959168Y985417D01*
Y984444D01*
X959029Y983889D01*
Y983750D01*
X958751Y983055D01*
X958335Y982639D01*
X957918Y982500D01*
X954585D01*
X954029Y982639D01*
X953890Y983194D01*
X953752Y983611D01*
Y983750D01*
Y993750D01*
X953613Y995139D01*
X953196Y995972D01*
X952918Y996528D01*
X952779Y996666D01*
X951807Y997222D01*
X950557Y997500D01*
X949724Y997639D01*
X942918D01*
Y984305D01*
X942779Y983611D01*
X942224Y983194D01*
X941807Y983055D01*
X938196D01*
X937502Y983194D01*
X937224Y983750D01*
X937085Y984167D01*
Y984305D01*
Y997639D01*
X931807D01*
X930279Y997500D01*
X929307Y997222D01*
X928613Y996805D01*
X928474Y996666D01*
X927780Y995833D01*
X927502Y994861D01*
X927363Y994028D01*
Y993889D01*
Y993750D01*
Y983750D01*
X927224Y983055D01*
X926946Y982639D01*
X926668Y982500D01*
X923335D01*
X922780Y982639D01*
X922363Y983194D01*
X922085Y983611D01*
Y983750D01*
X921807Y986944D01*
X921668Y988611D01*
X921530Y990000D01*
Y991111D01*
Y992083D01*
Y992639D01*
Y992916D01*
X921668Y994861D01*
X921807Y996666D01*
X922224Y998055D01*
X922641Y999305D01*
X923057Y1000278D01*
X923335Y1000972D01*
X923613Y1001389D01*
X923752Y1001527D01*
X924724Y1002500D01*
X925835Y1003333D01*
X927224Y1003889D01*
X928613Y1004166D01*
X929863Y1004444D01*
X930835Y1004583D01*
X949307D01*
X951390Y1004444D01*
D02*
G37*
G36*
X1075000Y994444D02*
X1053056Y983055D01*
X1049306Y984444D01*
X1045834Y985833D01*
X1042639Y986805D01*
X1039723Y987778D01*
X1037084Y988611D01*
X1034723Y989305D01*
X1032501Y989861D01*
X1030695Y990278D01*
X1029028Y990555D01*
X1027639Y990833D01*
X1026389Y990972D01*
X1025556Y991111D01*
X1024723Y991250D01*
X1023889D01*
X1022223Y991111D01*
X1020278Y990833D01*
X1018056Y990555D01*
X1015834Y990000D01*
X1010973Y988611D01*
X1006112Y987222D01*
X1003890Y986389D01*
X1001806Y985694D01*
X999862Y985000D01*
X998056Y984305D01*
X996668Y983750D01*
X995695Y983472D01*
X995001Y983194D01*
X994723Y983055D01*
X972779Y994444D01*
X994723Y1005833D01*
X998473Y1004444D01*
X1001945Y1003194D01*
X1005140Y1002083D01*
X1008056Y1001111D01*
X1010695Y1000278D01*
X1013056Y999583D01*
X1015278Y999166D01*
X1017084Y998611D01*
X1018751Y998333D01*
X1020139Y998055D01*
X1021251Y997916D01*
X1022223Y997778D01*
X1022917Y997639D01*
X1023889D01*
X1025556Y997778D01*
X1027501Y998055D01*
X1029723Y998333D01*
X1031945Y998889D01*
X1036806Y1000278D01*
X1041528Y1001805D01*
X1043889Y1002500D01*
X1045973Y1003194D01*
X1047917Y1003889D01*
X1049723Y1004583D01*
X1051111Y1005139D01*
X1052084Y1005416D01*
X1052778Y1005694D01*
X1053056Y1005833D01*
X1075000Y994444D01*
D02*
G37*
G36*
X958196Y1037916D02*
X958751Y1037499D01*
X959029Y1036944D01*
Y1036805D01*
X959168Y1035416D01*
X959307Y1033749D01*
X959446Y1032222D01*
Y1030555D01*
X959585Y1029166D01*
Y1028055D01*
Y1027222D01*
Y1027083D01*
Y1026944D01*
X959446Y1024305D01*
X959029Y1021944D01*
X958335Y1019861D01*
X957640Y1018194D01*
X956946Y1016805D01*
X956251Y1015972D01*
X955835Y1015277D01*
X955696Y1015138D01*
X954029Y1013750D01*
X952224Y1012777D01*
X950279Y1012083D01*
X948474Y1011666D01*
X946807Y1011388D01*
X945557Y1011111D01*
X936807D01*
X934168Y1011250D01*
X931946Y1011805D01*
X930002Y1012361D01*
X928474Y1013194D01*
X927224Y1013888D01*
X926252Y1014583D01*
X925696Y1015000D01*
X925557Y1015138D01*
X924168Y1016805D01*
X923196Y1018749D01*
X922502Y1020694D01*
X922085Y1022638D01*
X921668Y1024305D01*
X921530Y1025694D01*
Y1026249D01*
Y1026666D01*
Y1026805D01*
Y1026944D01*
Y1029166D01*
X921668Y1031249D01*
Y1032916D01*
X921807Y1034305D01*
X921946Y1035416D01*
Y1036110D01*
X922085Y1036666D01*
Y1036805D01*
X922502Y1037499D01*
X922918Y1037916D01*
X923474Y1038055D01*
X957501D01*
X958196Y1037916D01*
D02*
G37*
G36*
X932918Y1082638D02*
X934863Y1081943D01*
X936391Y1080971D01*
X937779Y1079999D01*
X938891Y1078888D01*
X939585Y1077915D01*
X940141Y1077221D01*
X940279Y1077082D01*
Y1076943D01*
X944029Y1070277D01*
X945002Y1068888D01*
X945974Y1067916D01*
X946807Y1067082D01*
X947502Y1066666D01*
X948196Y1066388D01*
X948613Y1066249D01*
X948890Y1066110D01*
X949029D01*
X949863Y1066249D01*
X950557Y1066388D01*
X951807Y1067082D01*
X952640Y1068055D01*
X953196Y1069166D01*
X953474Y1070138D01*
X953613Y1071110D01*
X953752Y1071805D01*
Y1072082D01*
X953613Y1075415D01*
Y1076804D01*
X953474Y1078193D01*
X953335Y1079304D01*
Y1080138D01*
X953196Y1080693D01*
Y1080832D01*
X953335Y1081527D01*
X953613Y1081804D01*
X953890Y1081943D01*
X957779D01*
X958196Y1081804D01*
X958474Y1081388D01*
X958751Y1080971D01*
Y1080832D01*
X959168Y1077777D01*
X959446Y1076388D01*
Y1074999D01*
X959585Y1073888D01*
Y1072916D01*
Y1072360D01*
Y1072082D01*
X959446Y1069582D01*
X959168Y1067499D01*
X958613Y1065832D01*
X958057Y1064305D01*
X957501Y1063332D01*
X956946Y1062499D01*
X956668Y1062082D01*
X956529Y1061944D01*
X955279Y1060971D01*
X954029Y1060138D01*
X952779Y1059582D01*
X951668Y1059305D01*
X950557Y1059027D01*
X949724Y1058888D01*
X949029D01*
X947918Y1059027D01*
X946807Y1059166D01*
X944724Y1059999D01*
X942918Y1061110D01*
X941529Y1062360D01*
X940279Y1063610D01*
X939446Y1064721D01*
X938891Y1065555D01*
X938752Y1065693D01*
Y1065832D01*
X935557Y1071666D01*
X934724Y1073054D01*
X933752Y1074027D01*
X933057Y1074860D01*
X932363Y1075277D01*
X931668Y1075554D01*
X931252Y1075832D01*
X930835D01*
X929724Y1075693D01*
X928891Y1075277D01*
X928474Y1074721D01*
X928335Y1074582D01*
X928057Y1074027D01*
X927780Y1073471D01*
X927502Y1072221D01*
X927363Y1071527D01*
Y1070971D01*
Y1070693D01*
Y1070555D01*
X927502Y1067082D01*
Y1065416D01*
X927641Y1063888D01*
X927780Y1062499D01*
Y1061527D01*
X927918Y1060832D01*
Y1060555D01*
X927780Y1060138D01*
X927641Y1059999D01*
X927224Y1059721D01*
X923335D01*
X922780Y1059860D01*
X922502Y1060138D01*
X922363Y1060416D01*
Y1060555D01*
X922085Y1062082D01*
X921807Y1063749D01*
X921668Y1065277D01*
Y1066943D01*
X921530Y1068193D01*
Y1069305D01*
Y1069999D01*
Y1070277D01*
X921668Y1072499D01*
X921946Y1074443D01*
X922363Y1076110D01*
X922918Y1077638D01*
X923752Y1078749D01*
X924446Y1079860D01*
X925280Y1080693D01*
X926113Y1081388D01*
X927085Y1081804D01*
X927918Y1082221D01*
X929307Y1082776D01*
X930002D01*
X930418Y1082915D01*
X931946D01*
X932918Y1082638D01*
D02*
G37*
G36*
X958890Y1131665D02*
X959168Y1131248D01*
X959307Y1130693D01*
Y1130554D01*
Y1125693D01*
X959168Y1125137D01*
X958751Y1124859D01*
X958335Y1124721D01*
X922641D01*
X922085Y1124859D01*
X921946Y1125276D01*
X921807Y1125554D01*
Y1125693D01*
Y1130554D01*
X921946Y1131248D01*
X922224Y1131665D01*
X922502Y1131804D01*
X958196D01*
X958890Y1131665D01*
D02*
G37*
G36*
Y1116943D02*
X959168Y1116665D01*
X959307Y1116387D01*
Y1116248D01*
Y1111804D01*
X959168Y1111387D01*
X958751Y1111109D01*
X958335Y1110971D01*
X932918D01*
X932641Y1110832D01*
Y1110693D01*
X932779Y1110415D01*
X932918D01*
X957501Y1099026D01*
X958057Y1098749D01*
X958474Y1098332D01*
X959029Y1097360D01*
X959307Y1096526D01*
Y1096249D01*
Y1096110D01*
Y1091110D01*
X959168Y1090415D01*
X959029Y1089860D01*
X958613Y1089582D01*
X958196Y1089304D01*
X957501Y1089026D01*
X922641D01*
X922085Y1089165D01*
X921946Y1089443D01*
X921807Y1089721D01*
Y1089860D01*
Y1094304D01*
X921946Y1094860D01*
X922224Y1094999D01*
X922502Y1095137D01*
X949307D01*
X949585Y1095276D01*
Y1095415D01*
X949446Y1095693D01*
X949307D01*
X923613Y1107498D01*
X923057Y1107776D01*
X922502Y1108193D01*
X922085Y1109026D01*
X921807Y1109582D01*
Y1109860D01*
Y1115137D01*
X921946Y1115832D01*
X922085Y1116248D01*
X922780Y1116804D01*
X923613Y1117082D01*
X958196D01*
X958890Y1116943D01*
D02*
G37*
G36*
X1006251Y1131526D02*
X1006390Y1131248D01*
X1006529Y1130970D01*
Y1130554D01*
Y1092499D01*
Y1092360D01*
Y1092082D01*
Y1091665D01*
Y1091110D01*
X1006390Y1089721D01*
X1006112Y1087915D01*
X1005834Y1086110D01*
X1005279Y1084165D01*
X1004445Y1082360D01*
X1003473Y1080832D01*
X1003334Y1080693D01*
X1002779Y1080277D01*
X1001945Y1079582D01*
X1000834Y1078888D01*
X999306Y1078193D01*
X997501Y1077499D01*
X995279Y1077082D01*
X992640Y1076943D01*
X991390D01*
X990140Y1077221D01*
X988473Y1077499D01*
X986668Y1077915D01*
X984862Y1078610D01*
X983195Y1079582D01*
X981807Y1080832D01*
X981668Y1080971D01*
X981251Y1081527D01*
X980835Y1082499D01*
X980140Y1083749D01*
X979585Y1085276D01*
X979168Y1087360D01*
X978751Y1089721D01*
X978612Y1092499D01*
Y1130554D01*
Y1130693D01*
Y1130970D01*
X978751Y1131248D01*
X978890Y1131526D01*
X979168Y1131665D01*
X979446Y1131804D01*
X986251D01*
X986807Y1131526D01*
X986945Y1131248D01*
X987084Y1130970D01*
Y1130554D01*
Y1092499D01*
Y1092221D01*
Y1091526D01*
X987223Y1090415D01*
X987362Y1089165D01*
X987501Y1087915D01*
X987779Y1086526D01*
X988334Y1085415D01*
X988890Y1084582D01*
X989168Y1084304D01*
X989723Y1083888D01*
X990973Y1083471D01*
X991668Y1083193D01*
X993056D01*
X993473Y1083332D01*
X994029D01*
X995279Y1083749D01*
X996529Y1084582D01*
Y1084721D01*
X996806Y1084999D01*
X996945Y1085415D01*
X997223Y1086249D01*
X997501Y1087360D01*
X997640Y1088749D01*
X997918Y1090415D01*
Y1092499D01*
Y1130554D01*
Y1130693D01*
Y1130970D01*
X998056Y1131248D01*
X998334Y1131526D01*
X998473Y1131665D01*
X999168Y1131804D01*
X1005556D01*
X1006251Y1131526D01*
D02*
G37*
G36*
X1037362Y1131665D02*
X1037500Y1131526D01*
X1037639Y1131248D01*
X1037778Y1130970D01*
Y1130693D01*
Y1130554D01*
Y1125971D01*
X1037639Y1125554D01*
X1037500Y1125415D01*
Y1125276D01*
X1037084Y1124998D01*
X1028751D01*
Y1078749D01*
X1028612Y1078332D01*
X1028473Y1078193D01*
X1028195Y1078054D01*
X1027917Y1077915D01*
X1020556D01*
X1019862Y1078054D01*
X1019723Y1078193D01*
X1019445Y1078471D01*
X1019306Y1078610D01*
Y1078749D01*
Y1124998D01*
X1011390D01*
X1010695Y1125137D01*
X1010556Y1125276D01*
X1010278Y1125832D01*
Y1125971D01*
Y1130554D01*
Y1130970D01*
X1010417Y1131248D01*
X1010556Y1131526D01*
X1011112Y1131804D01*
X1036945D01*
X1037362Y1131665D01*
D02*
G37*
G36*
X1069167Y1131526D02*
X1069306Y1131248D01*
X1069445Y1130970D01*
Y1130554D01*
Y1078749D01*
Y1078610D01*
X1069167Y1078193D01*
X1068889Y1078054D01*
X1068333Y1077915D01*
X1053611D01*
X1052223Y1078054D01*
X1050695Y1078332D01*
X1048889Y1078749D01*
X1047223Y1079443D01*
X1045556Y1080277D01*
X1044306Y1081388D01*
X1044167Y1081527D01*
X1043889Y1082221D01*
X1043612Y1082638D01*
X1043334Y1083193D01*
X1043056Y1084026D01*
X1042778Y1084860D01*
X1042639Y1085971D01*
X1042362Y1087221D01*
X1042084Y1088610D01*
X1041806Y1090276D01*
X1041667Y1092082D01*
X1041528Y1094165D01*
X1041389Y1096526D01*
Y1099026D01*
Y1110693D01*
Y1110832D01*
Y1111248D01*
Y1111943D01*
Y1112915D01*
X1041528Y1114026D01*
Y1115276D01*
X1041806Y1118054D01*
X1042084Y1120971D01*
X1042639Y1123748D01*
X1042917Y1124998D01*
X1043334Y1126248D01*
X1043750Y1127221D01*
X1044306Y1127915D01*
X1044445Y1128054D01*
X1044862Y1128470D01*
X1045695Y1129165D01*
X1046667Y1129859D01*
X1048195Y1130554D01*
X1050000Y1131248D01*
X1052223Y1131665D01*
X1054861Y1131804D01*
X1068611D01*
X1069167Y1131526D01*
D02*
G37*
%LPC*%
G36*
X953752Y1031249D02*
X927363D01*
Y1030138D01*
Y1029166D01*
Y1028472D01*
Y1027916D01*
Y1027499D01*
Y1027222D01*
Y1026944D01*
X927502Y1025416D01*
X927780Y1024027D01*
X928196Y1022777D01*
X928891Y1021805D01*
X929585Y1020972D01*
X930279Y1020277D01*
X932085Y1019166D01*
X933752Y1018472D01*
X935279Y1018194D01*
X935974Y1018055D01*
X944307D01*
X945974Y1018194D01*
X947363Y1018472D01*
X948613Y1018888D01*
X949724Y1019444D01*
X950696Y1020138D01*
X951390Y1020833D01*
X952502Y1022499D01*
X953196Y1024166D01*
X953613Y1025555D01*
X953752Y1026111D01*
Y1026527D01*
Y1026805D01*
Y1026944D01*
Y1027499D01*
Y1028055D01*
Y1029583D01*
Y1030138D01*
Y1030694D01*
Y1031111D01*
Y1031249D01*
D02*
G37*
G36*
X1060972Y1125276D02*
X1055000D01*
X1054306Y1125137D01*
X1053056Y1124721D01*
X1052500Y1124304D01*
X1051945Y1123887D01*
X1051806Y1123748D01*
X1051667Y1123471D01*
X1051389Y1122776D01*
X1050973Y1121665D01*
X1050834Y1120832D01*
X1050695Y1119998D01*
X1050556Y1119026D01*
X1050417Y1117776D01*
X1050278Y1116387D01*
Y1114859D01*
X1050139Y1113193D01*
Y1111248D01*
Y1098332D01*
Y1098193D01*
Y1097915D01*
Y1097360D01*
Y1096665D01*
X1050278Y1094860D01*
X1050417Y1092637D01*
X1050556Y1090415D01*
X1050834Y1088332D01*
X1051111Y1087499D01*
X1051389Y1086665D01*
X1051667Y1085971D01*
X1051945Y1085554D01*
X1052223Y1085276D01*
X1052917Y1084860D01*
X1053473Y1084582D01*
X1054167Y1084304D01*
X1055000Y1084165D01*
X1055972Y1084026D01*
X1060972D01*
Y1125276D01*
D02*
G37*
%LPD*%
D58*
X1133290Y872080D02*
X1136623Y875413D01*
X1143287D01*
X1146619Y872080D01*
Y868748D01*
X1143287Y865416D01*
X1136623D01*
X1133290Y862083D01*
Y858751D01*
X1136623Y855419D01*
X1143287D01*
X1146619Y858751D01*
X1126626Y855419D02*
Y875413D01*
X1119961Y868748D01*
X1113297Y875413D01*
Y855419D01*
X1106632D02*
Y875413D01*
X1096636D01*
X1093303Y872080D01*
Y865416D01*
X1096636Y862083D01*
X1106632D01*
X1073310Y872080D02*
X1076642Y875413D01*
X1083307D01*
X1086639Y872080D01*
Y868748D01*
X1083307Y865416D01*
X1076642D01*
X1073310Y862083D01*
Y858751D01*
X1076642Y855419D01*
X1083307D01*
X1086639Y858751D01*
X1046652Y875413D02*
Y855419D01*
X1036655D01*
X1033323Y858751D01*
Y872080D01*
X1036655Y875413D01*
X1046652D01*
X1016661Y855419D02*
X1023326D01*
X1026658Y858751D01*
Y865416D01*
X1023326Y868748D01*
X1016661D01*
X1013329Y865416D01*
Y862083D01*
X1026658D01*
X1006665Y855419D02*
Y868748D01*
X1003332D01*
X1000000Y865416D01*
Y855419D01*
Y865416D01*
X996668Y868748D01*
X993335Y865416D01*
Y855419D01*
X983339D02*
X976674D01*
X973342Y858751D01*
Y865416D01*
X976674Y868748D01*
X983339D01*
X986671Y865416D01*
Y858751D01*
X983339Y855419D01*
X946684Y875413D02*
Y855419D01*
X936687D01*
X933355Y858751D01*
Y862083D01*
X936687Y865416D01*
X946684D01*
X936687D01*
X933355Y868748D01*
Y872080D01*
X936687Y875413D01*
X946684D01*
X923358Y855419D02*
X916693D01*
X913361Y858751D01*
Y865416D01*
X916693Y868748D01*
X923358D01*
X926690Y865416D01*
Y858751D01*
X923358Y855419D01*
X903364Y868748D02*
X896700D01*
X893368Y865416D01*
Y855419D01*
X903364D01*
X906697Y858751D01*
X903364Y862083D01*
X893368D01*
X886703Y868748D02*
Y855419D01*
Y862083D01*
X883371Y865416D01*
X880039Y868748D01*
X876706D01*
X853381Y875413D02*
Y855419D01*
X863377D01*
X866710Y858751D01*
Y865416D01*
X863377Y868748D01*
X853381D01*
X1101634Y824227D02*
Y844220D01*
X1091637D01*
X1088305Y840888D01*
Y834223D01*
X1091637Y830891D01*
X1101634D01*
X1094969D02*
X1088305Y824227D01*
X1071644D02*
X1078308D01*
X1081640Y827559D01*
Y834223D01*
X1078308Y837556D01*
X1071644D01*
X1068311Y834223D01*
Y830891D01*
X1081640D01*
X1061647Y837556D02*
X1054982Y824227D01*
X1048318Y837556D01*
X1041653Y824227D02*
X1034989D01*
X1038321D01*
Y837556D01*
X1041653D01*
X1024992Y824227D02*
X1014995D01*
X1011663Y827559D01*
X1014995Y830891D01*
X1021660D01*
X1024992Y834223D01*
X1021660Y837556D01*
X1011663D01*
X1004998Y824227D02*
X998334D01*
X1001666D01*
Y837556D01*
X1004998D01*
X985005Y824227D02*
X978340D01*
X975008Y827559D01*
Y834223D01*
X978340Y837556D01*
X985005D01*
X988337Y834223D01*
Y827559D01*
X985005Y824227D01*
X968344D02*
Y837556D01*
X958347D01*
X955014Y834223D01*
Y824227D01*
X928356D02*
X921692D01*
X925024D01*
Y844220D01*
X928356Y840888D01*
X911695Y824227D02*
Y837556D01*
X905031Y844220D01*
X898366Y837556D01*
Y824227D01*
Y834223D01*
X911695D01*
X1069977Y813028D02*
X1083307D01*
Y803031D01*
X1076642D01*
X1083307D01*
Y793034D01*
X1053316D02*
X1059981D01*
X1063313Y796367D01*
Y803031D01*
X1059981Y806363D01*
X1053316D01*
X1049984Y803031D01*
Y799699D01*
X1063313D01*
X1043319Y813028D02*
Y793034D01*
X1033323D01*
X1029990Y796367D01*
Y799699D01*
Y803031D01*
X1033323Y806363D01*
X1043319D01*
X1023326Y793034D02*
Y796367D01*
X1019994D01*
Y793034D01*
X1023326D01*
X973342D02*
X986671D01*
X973342Y806363D01*
Y809696D01*
X976674Y813028D01*
X983339D01*
X986671Y809696D01*
X966677D02*
X963345Y813028D01*
X956681D01*
X953348Y809696D01*
Y796367D01*
X956681Y793034D01*
X963345D01*
X966677Y796367D01*
Y809696D01*
X946684Y793034D02*
X940019D01*
X943352D01*
Y813028D01*
X946684Y809696D01*
X930023D02*
X926690Y813028D01*
X920026D01*
X916693Y809696D01*
Y806363D01*
X920026Y803031D01*
X916693Y799699D01*
Y796367D01*
X920026Y793034D01*
X926690D01*
X930023Y796367D01*
Y799699D01*
X926690Y803031D01*
X930023Y806363D01*
Y809696D01*
X926690Y803031D02*
X920026D01*
M02*
