G04 Layer_Color=16711935*
%FSLAX44Y44*%
%MOMM*%
G71*
G01*
G75*
%ADD46R,1.7032X1.7032*%
%ADD47C,1.2032*%
%ADD48R,2.8032X3.2032*%
%ADD49C,1.9032*%
%ADD51C,0.2032*%
%ADD52C,2.2032*%
%ADD53C,1.7032*%
%ADD55C,3.4032*%
D46*
X900000Y1310000D02*
D03*
X1100000D02*
D03*
X900000Y1160000D02*
D03*
X1100000D02*
D03*
D47*
X850000Y1377500D02*
D03*
Y1402500D02*
D03*
X617500Y900000D02*
D03*
X642500D02*
D03*
X1382500D02*
D03*
X1357500D02*
D03*
X1150000Y1377500D02*
D03*
Y1402500D02*
D03*
D48*
X906000Y651001D02*
D03*
X810000D02*
D03*
X1190000D02*
D03*
X1094000D02*
D03*
D49*
X858000Y721001D02*
D03*
X833000D02*
D03*
X883000D02*
D03*
X1142000D02*
D03*
X1117000D02*
D03*
X1167000D02*
D03*
D51*
X700000Y1440000D02*
D03*
X1300000D02*
D03*
X700000Y560000D02*
D03*
X1300000D02*
D03*
X1000000Y950000D02*
D03*
D52*
X1173250Y981250D02*
D03*
Y918750D02*
D03*
X1110750Y981250D02*
D03*
Y918750D02*
D03*
X1142000Y950000D02*
D03*
X858000D02*
D03*
X826750Y918750D02*
D03*
Y981250D02*
D03*
X889250Y918750D02*
D03*
Y981250D02*
D03*
D53*
X1000000Y1235200D02*
D03*
Y1260600D02*
D03*
D55*
Y1400000D02*
D03*
X600000Y800000D02*
D03*
X1400000D02*
D03*
Y1400000D02*
D03*
X600000D02*
D03*
M02*
