G04 Layer_Physical_Order=2*
G04 Layer_Color=16711680*
%FSLAX44Y44*%
%MOMM*%
G71*
G01*
G75*
%ADD20C,0.6000*%
%ADD21C,0.2540*%
%ADD22R,1.5000X1.5000*%
%ADD23C,1.5000*%
%ADD24C,1.0000*%
%ADD25R,2.6000X3.0000*%
%ADD26C,1.7000*%
%ADD27C,9.0000*%
%ADD28C,2.0000*%
%ADD29C,1.2000*%
%ADD30C,3.2000*%
%ADD31C,1.2700*%
%ADD32C,0.5000*%
G36*
X1457820Y1489316D02*
X1462885Y1487959D01*
X1467729Y1485952D01*
X1472271Y1483331D01*
X1476431Y1480139D01*
X1480138Y1476431D01*
X1483330Y1472271D01*
X1485952Y1467730D01*
X1487959Y1462885D01*
X1489316Y1457820D01*
X1490000Y1452622D01*
X1490000Y1450000D01*
X1490000Y550000D01*
X1490000Y550000D01*
X1490000Y547378D01*
X1489315Y542179D01*
X1487958Y537115D01*
X1485952Y532270D01*
X1483330Y527729D01*
X1480138Y523569D01*
X1476430Y519862D01*
X1472270Y516670D01*
X1467729Y514048D01*
X1462885Y512042D01*
X1457820Y510684D01*
X1452622Y510000D01*
X550000D01*
X547378Y510000D01*
X542179Y510684D01*
X537115Y512041D01*
X532270Y514048D01*
X527729Y516670D01*
X523569Y519862D01*
X519862Y523569D01*
X516670Y527729D01*
X514048Y532270D01*
X512041Y537115D01*
X510684Y542180D01*
X510000Y547378D01*
X510000Y550000D01*
Y1450000D01*
X510000Y1452621D01*
X510684Y1457820D01*
X512041Y1462885D01*
X514048Y1467729D01*
X516670Y1472271D01*
X519861Y1476430D01*
X523569Y1480138D01*
X527729Y1483330D01*
X532270Y1485952D01*
X537114Y1487959D01*
X542179Y1489316D01*
X547378Y1490000D01*
X550000Y1490000D01*
X1450000Y1490000D01*
X1450000Y1490000D01*
X1450000Y1490000D01*
X1452621Y1490000D01*
X1457820Y1489316D01*
D02*
G37*
%LPC*%
G36*
X1400000Y850107D02*
X1393460Y849679D01*
X1387031Y848400D01*
X1380825Y846293D01*
X1374946Y843394D01*
X1369497Y839753D01*
X1364569Y835431D01*
X1360247Y830503D01*
X1356606Y825054D01*
X1353707Y819175D01*
X1351600Y812969D01*
X1350321Y806540D01*
X1349893Y800000D01*
X1350321Y793460D01*
X1351600Y787031D01*
X1353707Y780825D01*
X1356606Y774946D01*
X1360247Y769497D01*
X1364569Y764569D01*
X1369497Y760247D01*
X1374946Y756606D01*
X1380825Y753707D01*
X1387031Y751600D01*
X1393460Y750321D01*
X1400000Y749893D01*
X1406540Y750321D01*
X1412969Y751600D01*
X1419175Y753707D01*
X1425054Y756606D01*
X1430503Y760247D01*
X1435431Y764569D01*
X1439753Y769497D01*
X1443394Y774946D01*
X1446293Y780825D01*
X1448400Y787031D01*
X1449679Y793460D01*
X1450107Y800000D01*
X1449679Y806540D01*
X1448400Y812969D01*
X1446293Y819175D01*
X1443394Y825054D01*
X1439753Y830503D01*
X1435431Y835431D01*
X1430503Y839753D01*
X1425054Y843394D01*
X1419175Y846293D01*
X1412969Y848400D01*
X1406540Y849679D01*
X1400000Y850107D01*
D02*
G37*
G36*
X600000D02*
X593460Y849679D01*
X587031Y848400D01*
X580825Y846293D01*
X574946Y843394D01*
X569497Y839753D01*
X564569Y835431D01*
X560247Y830503D01*
X556606Y825054D01*
X553707Y819175D01*
X551600Y812969D01*
X550321Y806540D01*
X549893Y800000D01*
X550321Y793460D01*
X551600Y787031D01*
X553707Y780825D01*
X556606Y774946D01*
X560247Y769497D01*
X564569Y764569D01*
X569497Y760247D01*
X574946Y756606D01*
X580825Y753707D01*
X587031Y751600D01*
X593460Y750321D01*
X600000Y749893D01*
X606540Y750321D01*
X612969Y751600D01*
X619175Y753707D01*
X625054Y756606D01*
X630503Y760247D01*
X635431Y764569D01*
X639753Y769497D01*
X643394Y774946D01*
X646293Y780825D01*
X648400Y787031D01*
X649679Y793460D01*
X650107Y800000D01*
X649679Y806540D01*
X648400Y812969D01*
X646293Y819175D01*
X643394Y825054D01*
X639753Y830503D01*
X635431Y835431D01*
X630503Y839753D01*
X625054Y843394D01*
X619175Y846293D01*
X612969Y848400D01*
X606540Y849679D01*
X600000Y850107D01*
D02*
G37*
G36*
X1142000Y734617D02*
X1138476Y734153D01*
X1135192Y732793D01*
X1132372Y730629D01*
X1130208Y727809D01*
X1130135Y727633D01*
X1128865D01*
X1128792Y727809D01*
X1126628Y730629D01*
X1123808Y732793D01*
X1120524Y734153D01*
X1117000Y734617D01*
X1113476Y734153D01*
X1110192Y732793D01*
X1107372Y730629D01*
X1105208Y727809D01*
X1103848Y724525D01*
X1103383Y721001D01*
X1103848Y717476D01*
X1105208Y714192D01*
X1107372Y711372D01*
X1110192Y709208D01*
X1113476Y707848D01*
X1117000Y707384D01*
X1120524Y707848D01*
X1123808Y709208D01*
X1126628Y711372D01*
X1128792Y714192D01*
X1128865Y714368D01*
X1130135D01*
X1130208Y714192D01*
X1132372Y711372D01*
X1135192Y709208D01*
X1138476Y707848D01*
X1142000Y707384D01*
X1145524Y707848D01*
X1148808Y709208D01*
X1151628Y711372D01*
X1153792Y714192D01*
X1155153Y717476D01*
X1155617Y721001D01*
X1155153Y724525D01*
X1153792Y727809D01*
X1151628Y730629D01*
X1148808Y732793D01*
X1145524Y734153D01*
X1142000Y734617D01*
D02*
G37*
G36*
X1382500Y910086D02*
X1379890Y909743D01*
X1377457Y908735D01*
X1375368Y907132D01*
X1373765Y905043D01*
X1372757Y902610D01*
X1372414Y900000D01*
X1372757Y897390D01*
X1373765Y894957D01*
X1375368Y892868D01*
X1377457Y891265D01*
X1379890Y890257D01*
X1382500Y889914D01*
X1385110Y890257D01*
X1387543Y891265D01*
X1389632Y892868D01*
X1391235Y894957D01*
X1392243Y897390D01*
X1392586Y900000D01*
X1392243Y902610D01*
X1391235Y905043D01*
X1389632Y907132D01*
X1387543Y908735D01*
X1385110Y909743D01*
X1382500Y910086D01*
D02*
G37*
G36*
X617500D02*
X614889Y909743D01*
X612457Y908735D01*
X610368Y907132D01*
X608765Y905043D01*
X607757Y902610D01*
X607414Y900000D01*
X607757Y897390D01*
X608765Y894957D01*
X610368Y892868D01*
X612457Y891265D01*
X614889Y890257D01*
X617500Y889914D01*
X620111Y890257D01*
X622543Y891265D01*
X624632Y892868D01*
X626235Y894957D01*
X627243Y897390D01*
X627586Y900000D01*
X627243Y902610D01*
X626235Y905043D01*
X624632Y907132D01*
X622543Y908735D01*
X620111Y909743D01*
X617500Y910086D01*
D02*
G37*
G36*
X1174000Y779565D02*
X1172042Y779307D01*
X1170218Y778551D01*
X1170011Y778393D01*
X1163989D01*
X1163782Y778551D01*
X1161958Y779307D01*
X1160000Y779565D01*
X1158042Y779307D01*
X1156218Y778551D01*
X1154651Y777349D01*
X1153449Y775782D01*
X1152693Y773958D01*
X1152435Y772000D01*
X1152693Y770042D01*
X1153449Y768218D01*
X1154651Y766651D01*
X1156218Y765449D01*
X1158042Y764693D01*
X1160000Y764435D01*
X1161958Y764693D01*
X1163782Y765449D01*
X1163989Y765607D01*
X1170011D01*
X1170218Y765449D01*
X1172042Y764693D01*
X1174000Y764435D01*
X1175958Y764693D01*
X1177782Y765449D01*
X1179349Y766651D01*
X1180551Y768218D01*
X1181307Y770042D01*
X1181565Y772000D01*
X1181307Y773958D01*
X1180551Y775782D01*
X1179349Y777349D01*
X1177782Y778551D01*
X1175958Y779307D01*
X1174000Y779565D01*
D02*
G37*
G36*
X858000Y734617D02*
X854476Y734153D01*
X851192Y732793D01*
X848372Y730629D01*
X846208Y727809D01*
X846135Y727633D01*
X844865D01*
X844792Y727809D01*
X842628Y730629D01*
X839808Y732793D01*
X836524Y734153D01*
X833000Y734617D01*
X829476Y734153D01*
X826192Y732793D01*
X823372Y730629D01*
X821208Y727809D01*
X819847Y724525D01*
X819383Y721001D01*
X819847Y717476D01*
X821208Y714192D01*
X823372Y711372D01*
X826192Y709208D01*
X829476Y707848D01*
X833000Y707384D01*
X836524Y707848D01*
X839808Y709208D01*
X842628Y711372D01*
X844792Y714192D01*
X844865Y714368D01*
X846135D01*
X846208Y714192D01*
X848372Y711372D01*
X851192Y709208D01*
X854476Y707848D01*
X858000Y707384D01*
X861524Y707848D01*
X864808Y709208D01*
X867628Y711372D01*
X869792Y714192D01*
X871152Y717476D01*
X871616Y721001D01*
X871152Y724525D01*
X869792Y727809D01*
X867628Y730629D01*
X864808Y732793D01*
X861524Y734153D01*
X858000Y734617D01*
D02*
G37*
G36*
X828000Y671001D02*
X792000D01*
Y631001D01*
X828000D01*
Y671001D01*
D02*
G37*
G36*
X1300000Y585372D02*
X1295050Y584885D01*
X1290291Y583441D01*
X1285904Y581096D01*
X1282059Y577941D01*
X1278904Y574096D01*
X1276559Y569710D01*
X1275115Y564950D01*
X1274628Y560000D01*
X1275115Y555050D01*
X1276559Y550290D01*
X1278904Y545904D01*
X1282059Y542059D01*
X1285904Y538904D01*
X1290291Y536559D01*
X1295050Y535115D01*
X1300000Y534628D01*
X1304950Y535115D01*
X1309709Y536559D01*
X1314096Y538904D01*
X1317941Y542059D01*
X1321096Y545904D01*
X1323441Y550290D01*
X1324885Y555050D01*
X1325372Y560000D01*
X1324885Y564950D01*
X1323441Y569710D01*
X1321096Y574096D01*
X1317941Y577941D01*
X1314096Y581096D01*
X1309709Y583441D01*
X1304950Y584885D01*
X1300000Y585372D01*
D02*
G37*
G36*
X700000D02*
X695050Y584885D01*
X690291Y583441D01*
X685904Y581096D01*
X682059Y577941D01*
X678904Y574096D01*
X676559Y569710D01*
X675115Y564950D01*
X674628Y560000D01*
X675115Y555050D01*
X676559Y550290D01*
X678904Y545904D01*
X682059Y542059D01*
X685904Y538904D01*
X690291Y536559D01*
X695050Y535115D01*
X700000Y534628D01*
X704950Y535115D01*
X709709Y536559D01*
X714096Y538904D01*
X717941Y542059D01*
X721096Y545904D01*
X723441Y550290D01*
X724885Y555050D01*
X725372Y560000D01*
X724885Y564950D01*
X723441Y569710D01*
X721096Y574096D01*
X717941Y577941D01*
X714096Y581096D01*
X709709Y583441D01*
X704950Y584885D01*
X700000Y585372D01*
D02*
G37*
G36*
X1208000Y671001D02*
X1172000D01*
Y631001D01*
X1208000D01*
Y671001D01*
D02*
G37*
G36*
X1112000D02*
X1076000D01*
Y631001D01*
X1112000D01*
Y671001D01*
D02*
G37*
G36*
X924000D02*
X888000D01*
Y631001D01*
X924000D01*
Y671001D01*
D02*
G37*
G36*
X850000Y1387586D02*
X847390Y1387243D01*
X844957Y1386235D01*
X842868Y1384632D01*
X841265Y1382543D01*
X840257Y1380110D01*
X839914Y1377500D01*
X840257Y1374890D01*
X841265Y1372457D01*
X842868Y1370368D01*
X844957Y1368765D01*
X847390Y1367757D01*
X850000Y1367414D01*
X852610Y1367757D01*
X855043Y1368765D01*
X857132Y1370368D01*
X858735Y1372457D01*
X859743Y1374890D01*
X860086Y1377500D01*
X859743Y1380110D01*
X858735Y1382543D01*
X857132Y1384632D01*
X855043Y1386235D01*
X852610Y1387243D01*
X850000Y1387586D01*
D02*
G37*
G36*
X1400000Y1450107D02*
X1393460Y1449679D01*
X1387031Y1448400D01*
X1380825Y1446293D01*
X1374946Y1443394D01*
X1369497Y1439753D01*
X1364569Y1435431D01*
X1360247Y1430503D01*
X1356606Y1425054D01*
X1353707Y1419175D01*
X1351600Y1412969D01*
X1350321Y1406540D01*
X1349893Y1400000D01*
X1350321Y1393460D01*
X1351600Y1387031D01*
X1353707Y1380825D01*
X1356606Y1374946D01*
X1360247Y1369497D01*
X1364569Y1364569D01*
X1369497Y1360247D01*
X1374946Y1356606D01*
X1380825Y1353707D01*
X1387031Y1351600D01*
X1393460Y1350321D01*
X1400000Y1349893D01*
X1406540Y1350321D01*
X1412969Y1351600D01*
X1419175Y1353707D01*
X1425054Y1356606D01*
X1430503Y1360247D01*
X1435431Y1364569D01*
X1439753Y1369497D01*
X1443394Y1374946D01*
X1446293Y1380825D01*
X1448400Y1387031D01*
X1449679Y1393460D01*
X1450107Y1400000D01*
X1449679Y1406540D01*
X1448400Y1412969D01*
X1446293Y1419175D01*
X1443394Y1425054D01*
X1439753Y1430503D01*
X1435431Y1435431D01*
X1430503Y1439753D01*
X1425054Y1443394D01*
X1419175Y1446293D01*
X1412969Y1448400D01*
X1406540Y1449679D01*
X1400000Y1450107D01*
D02*
G37*
G36*
X600000D02*
X593460Y1449679D01*
X587031Y1448400D01*
X580825Y1446293D01*
X574946Y1443394D01*
X569497Y1439753D01*
X564569Y1435431D01*
X560247Y1430503D01*
X556606Y1425054D01*
X553707Y1419175D01*
X551600Y1412969D01*
X550321Y1406540D01*
X549893Y1400000D01*
X550321Y1393460D01*
X551600Y1387031D01*
X553707Y1380825D01*
X556606Y1374946D01*
X560247Y1369497D01*
X564569Y1364569D01*
X569497Y1360247D01*
X574946Y1356606D01*
X580825Y1353707D01*
X587031Y1351600D01*
X593460Y1350321D01*
X600000Y1349893D01*
X606540Y1350321D01*
X612969Y1351600D01*
X619175Y1353707D01*
X625054Y1356606D01*
X630503Y1360247D01*
X635431Y1364569D01*
X639753Y1369497D01*
X643394Y1374946D01*
X646293Y1380825D01*
X648400Y1387031D01*
X649679Y1393460D01*
X650107Y1400000D01*
X649679Y1406540D01*
X648400Y1412969D01*
X646293Y1419175D01*
X643394Y1425054D01*
X639753Y1430503D01*
X635431Y1435431D01*
X630503Y1439753D01*
X625054Y1443394D01*
X619175Y1446293D01*
X612969Y1448400D01*
X606540Y1449679D01*
X600000Y1450107D01*
D02*
G37*
G36*
X1300000Y1465372D02*
X1295050Y1464885D01*
X1290291Y1463441D01*
X1285904Y1461096D01*
X1282059Y1457941D01*
X1278904Y1454096D01*
X1276559Y1449709D01*
X1275115Y1444950D01*
X1274628Y1440000D01*
X1275115Y1435050D01*
X1276559Y1430291D01*
X1278904Y1425904D01*
X1282059Y1422059D01*
X1285904Y1418904D01*
X1290291Y1416559D01*
X1295050Y1415115D01*
X1300000Y1414628D01*
X1304950Y1415115D01*
X1309709Y1416559D01*
X1314096Y1418904D01*
X1317941Y1422059D01*
X1321096Y1425904D01*
X1323441Y1430291D01*
X1324885Y1435050D01*
X1325372Y1440000D01*
X1324885Y1444950D01*
X1323441Y1449709D01*
X1321096Y1454096D01*
X1317941Y1457941D01*
X1314096Y1461096D01*
X1309709Y1463441D01*
X1304950Y1464885D01*
X1300000Y1465372D01*
D02*
G37*
G36*
X700000D02*
X695050Y1464885D01*
X690291Y1463441D01*
X685904Y1461096D01*
X682059Y1457941D01*
X678904Y1454096D01*
X676559Y1449709D01*
X675115Y1444950D01*
X674628Y1440000D01*
X675115Y1435050D01*
X676559Y1430291D01*
X678904Y1425904D01*
X682059Y1422059D01*
X685904Y1418904D01*
X690291Y1416559D01*
X695050Y1415115D01*
X700000Y1414628D01*
X704950Y1415115D01*
X709709Y1416559D01*
X714096Y1418904D01*
X717941Y1422059D01*
X721096Y1425904D01*
X723441Y1430291D01*
X724885Y1435050D01*
X725372Y1440000D01*
X724885Y1444950D01*
X723441Y1449709D01*
X721096Y1454096D01*
X717941Y1457941D01*
X714096Y1461096D01*
X709709Y1463441D01*
X704950Y1464885D01*
X700000Y1465372D01*
D02*
G37*
G36*
X1150000Y1387586D02*
X1147390Y1387243D01*
X1144957Y1386235D01*
X1142868Y1384632D01*
X1141265Y1382543D01*
X1140257Y1380110D01*
X1139914Y1377500D01*
X1140257Y1374890D01*
X1141265Y1372457D01*
X1142868Y1370368D01*
X1144957Y1368765D01*
X1147390Y1367757D01*
X1150000Y1367414D01*
X1152610Y1367757D01*
X1155043Y1368765D01*
X1157132Y1370368D01*
X1158735Y1372457D01*
X1159743Y1374890D01*
X1160086Y1377500D01*
X1159743Y1380110D01*
X1158735Y1382543D01*
X1157132Y1384632D01*
X1155043Y1386235D01*
X1152610Y1387243D01*
X1150000Y1387586D01*
D02*
G37*
G36*
X1112500Y1322500D02*
X1087500D01*
Y1297500D01*
X1112500D01*
Y1322500D01*
D02*
G37*
G36*
X1142000Y965072D02*
X1139060Y964783D01*
X1136232Y963925D01*
X1133626Y962532D01*
X1131342Y960658D01*
X1129468Y958374D01*
X1128075Y955768D01*
X1127217Y952941D01*
X1126927Y950000D01*
X1127217Y947059D01*
X1128075Y944232D01*
X1129468Y941626D01*
X1131342Y939342D01*
X1133626Y937468D01*
X1136232Y936075D01*
X1139060Y935217D01*
X1142000Y934927D01*
X1144940Y935217D01*
X1147768Y936075D01*
X1150374Y937468D01*
X1152658Y939342D01*
X1154532Y941626D01*
X1155925Y944232D01*
X1156783Y947059D01*
X1157073Y950000D01*
X1156783Y952941D01*
X1155925Y955768D01*
X1154532Y958374D01*
X1152658Y960658D01*
X1150374Y962532D01*
X1147768Y963925D01*
X1144940Y964783D01*
X1142000Y965072D01*
D02*
G37*
G36*
X858000D02*
X855060Y964783D01*
X852232Y963925D01*
X849626Y962532D01*
X847342Y960658D01*
X845468Y958374D01*
X844075Y955768D01*
X843217Y952941D01*
X842927Y950000D01*
X843217Y947059D01*
X844075Y944232D01*
X845468Y941626D01*
X847342Y939342D01*
X849626Y937468D01*
X852232Y936075D01*
X855060Y935217D01*
X858000Y934927D01*
X860940Y935217D01*
X863768Y936075D01*
X866374Y937468D01*
X868658Y939342D01*
X870532Y941626D01*
X871925Y944232D01*
X872783Y947059D01*
X873073Y950000D01*
X872783Y952941D01*
X871925Y955768D01*
X870532Y958374D01*
X868658Y960658D01*
X866374Y962532D01*
X863768Y963925D01*
X860940Y964783D01*
X858000Y965072D01*
D02*
G37*
G36*
X1000000Y975372D02*
X995050Y974885D01*
X990291Y973441D01*
X985904Y971096D01*
X982059Y967941D01*
X978904Y964096D01*
X976559Y959709D01*
X975115Y954950D01*
X974628Y950000D01*
X975115Y945050D01*
X976559Y940291D01*
X978904Y935904D01*
X982059Y932059D01*
X985904Y928904D01*
X990291Y926559D01*
X995050Y925115D01*
X1000000Y924628D01*
X1004950Y925115D01*
X1009709Y926559D01*
X1014096Y928904D01*
X1017941Y932059D01*
X1021096Y935904D01*
X1023441Y940291D01*
X1024885Y945050D01*
X1025372Y950000D01*
X1024885Y954950D01*
X1023441Y959709D01*
X1021096Y964096D01*
X1017941Y967941D01*
X1014096Y971096D01*
X1009709Y973441D01*
X1004950Y974885D01*
X1000000Y975372D01*
D02*
G37*
G36*
X912500Y1322500D02*
X887500D01*
Y1297500D01*
X912500D01*
Y1322500D01*
D02*
G37*
G36*
X1112500Y1172500D02*
X1087500D01*
Y1147500D01*
X1112500D01*
Y1172500D01*
D02*
G37*
G36*
X912500D02*
X887500D01*
Y1147500D01*
X912500D01*
Y1172500D01*
D02*
G37*
%LPD*%
D20*
X1147999Y769999D02*
X1147999D01*
D21*
X1160000Y772000D02*
X1174000D01*
D22*
X900000Y1310000D02*
D03*
X1100000D02*
D03*
X900000Y1160000D02*
D03*
X1100000D02*
D03*
D23*
X1000000Y1260600D02*
D03*
Y1235200D02*
D03*
D24*
X850000Y1377500D02*
D03*
Y1402500D02*
D03*
X617500Y900000D02*
D03*
X642500D02*
D03*
X1382500D02*
D03*
X1357500D02*
D03*
X1150000Y1377500D02*
D03*
Y1402500D02*
D03*
D25*
X906000Y651001D02*
D03*
X810000D02*
D03*
X1190000D02*
D03*
X1094000D02*
D03*
D26*
X858000Y721001D02*
D03*
X833000D02*
D03*
X883000D02*
D03*
X1142000D02*
D03*
X1117000D02*
D03*
X1167000D02*
D03*
D27*
X1000000Y1400000D02*
D03*
X600000Y800000D02*
D03*
X1400000D02*
D03*
Y1400000D02*
D03*
X600000D02*
D03*
D28*
X889250Y981250D02*
D03*
Y918750D02*
D03*
X826750Y981250D02*
D03*
Y918750D02*
D03*
X858000Y950000D02*
D03*
X1173250Y981250D02*
D03*
Y918750D02*
D03*
X1110750Y981250D02*
D03*
Y918750D02*
D03*
X1142000Y950000D02*
D03*
D29*
X1024000Y1424000D02*
D03*
Y1376000D02*
D03*
X976000D02*
D03*
Y1424000D02*
D03*
X1035000Y1400000D02*
D03*
X1000000Y1365000D02*
D03*
X965000Y1400000D02*
D03*
X1000000Y1435000D02*
D03*
X600000Y835000D02*
D03*
X565000Y800000D02*
D03*
X600000Y765000D02*
D03*
X635000Y800000D02*
D03*
X576000Y824000D02*
D03*
Y776000D02*
D03*
X624000D02*
D03*
Y824000D02*
D03*
X1400000Y835000D02*
D03*
X1365000Y800000D02*
D03*
X1400000Y765000D02*
D03*
X1435000Y800000D02*
D03*
X1376000Y824000D02*
D03*
Y776000D02*
D03*
X1424000D02*
D03*
Y824000D02*
D03*
X1400000Y1435000D02*
D03*
X1365000Y1400000D02*
D03*
X1400000Y1365000D02*
D03*
X1435000Y1400000D02*
D03*
X1376000Y1424000D02*
D03*
Y1376000D02*
D03*
X1424000D02*
D03*
Y1424000D02*
D03*
X600000Y1435000D02*
D03*
X565000Y1400000D02*
D03*
X600000Y1365000D02*
D03*
X635000Y1400000D02*
D03*
X576000Y1424000D02*
D03*
Y1376000D02*
D03*
X624000D02*
D03*
Y1424000D02*
D03*
D30*
X1000000Y1400000D02*
D03*
X600000Y800000D02*
D03*
X1400000D02*
D03*
Y1400000D02*
D03*
X600000D02*
D03*
D31*
X1222000Y1406000D02*
D03*
X731050Y1020000D02*
D03*
X754000Y1128000D02*
D03*
X731050Y1038950D02*
D03*
X774000Y798000D02*
D03*
X744000D02*
D03*
X822000Y784000D02*
D03*
X891500Y812000D02*
D03*
X790000Y1130000D02*
D03*
X774000Y1116000D02*
D03*
X1147999Y769999D02*
D03*
X1304000Y776000D02*
D03*
X1176000Y1132000D02*
D03*
X1274000D02*
D03*
X1370000Y1150000D02*
D03*
X1188000Y1406000D02*
D03*
X794000D02*
D03*
X761000D02*
D03*
X1190000Y815000D02*
D03*
X744000Y816000D02*
D03*
X774000D02*
D03*
X744000Y834000D02*
D03*
X774000D02*
D03*
X1258000Y832000D02*
D03*
X1228000D02*
D03*
X1258000Y814000D02*
D03*
X1228000D02*
D03*
Y796000D02*
D03*
X1258000D02*
D03*
X870000Y770000D02*
D03*
D32*
X1174000Y772000D02*
D03*
X1160000D02*
D03*
M02*
