G04 Layer_Physical_Order=1*
G04 Layer_Color=255*
%FSLAX44Y44*%
%MOMM*%
G71*
G01*
G75*
%ADD10R,0.8000X0.5000*%
%ADD11R,5.5000X4.0000*%
%ADD12R,1.2000X1.2000*%
%ADD13R,0.5500X1.3000*%
%ADD14R,0.6500X1.2000*%
%ADD15R,1.0000X1.3000*%
%ADD16R,1.3000X1.0000*%
%ADD17R,0.9000X1.6000*%
%ADD18R,5.4500X6.6000*%
%ADD19R,0.6500X1.7500*%
%ADD20C,0.6000*%
%ADD21C,0.2540*%
%ADD22C,1.0000*%
%ADD23R,1.5000X1.5000*%
%ADD24C,1.0000*%
%ADD25R,2.6000X3.0000*%
%ADD26C,1.7000*%
%ADD27C,9.0000*%
%ADD28C,2.0000*%
%ADD29C,1.5000*%
%ADD30C,1.2000*%
%ADD31C,3.2000*%
%ADD32C,1.2700*%
G36*
X1412000Y1062000D02*
Y832000D01*
X1372925Y829632D01*
X1372000Y830502D01*
Y1053000D01*
X1308000Y1117000D01*
Y1136511D01*
X1310489Y1139000D01*
X1335000D01*
X1412000Y1062000D01*
D02*
G37*
G36*
X764000Y953500D02*
X850500D01*
Y950500D01*
X762000Y950000D01*
X705650Y1006350D01*
Y1010500D01*
X707000D01*
X764000Y953500D01*
D02*
G37*
G36*
X1490000Y1077500D02*
X1446000Y1077500D01*
X1404500Y1119000D01*
X1404500Y1178500D01*
X1389000Y1194000D01*
X1247000Y1194000D01*
X1213000Y1236000D01*
X1169318Y1236000D01*
X1140682Y1194000D01*
X1024500Y1194000D01*
X1024500Y1320000D01*
X1170000Y1320000D01*
X1490000D01*
Y1077500D01*
D02*
G37*
G36*
X1216000Y785000D02*
X1187500D01*
Y789000D01*
X1173000Y803500D01*
X1158500D01*
Y816500D01*
X1163000Y821000D01*
Y840500D01*
X1173500Y851000D01*
X1216000D01*
Y785000D01*
D02*
G37*
G36*
X891000Y840500D02*
X900500Y831000D01*
Y808000D01*
X896000Y803500D01*
X874500D01*
Y823000D01*
X879000Y827500D01*
Y840500D01*
X891000Y840500D01*
D02*
G37*
G36*
X727500Y1320000D02*
X728029Y1190900D01*
X727500Y1190369D01*
Y1190250D01*
X727382D01*
X727133Y1190000D01*
X630000D01*
Y1044000D01*
X702000D01*
Y1012000D01*
X670000D01*
X630000Y972000D01*
Y827000D01*
X619000Y816000D01*
X615000Y820000D01*
X562000D01*
Y972292D01*
X510000Y1020371D01*
X510000Y1326000D01*
X721500D01*
X727500Y1320000D01*
D02*
G37*
G36*
X798000Y1102000D02*
Y1075000D01*
X748000Y1025000D01*
X735000Y1012000D01*
X709000Y1012000D01*
Y1037000D01*
X716000Y1044000D01*
X718000D01*
X729051Y1055051D01*
X731050Y1055050D01*
X731050Y1044000D01*
X731050D01*
Y1090050D01*
X743000Y1102000D01*
X746000D01*
X746000Y1136000D01*
X798000D01*
X798000Y1102000D01*
D02*
G37*
G36*
X639000Y1387000D02*
X853000D01*
Y1387000D01*
X856500D01*
X907500Y1336000D01*
X907500Y1302500D01*
X864500Y1259500D01*
X835500D01*
D01*
X835500Y1259500D01*
X820500Y1259500D01*
X720000Y1360000D01*
X608000Y1360000D01*
X608000Y1382000D01*
X621000Y1395000D01*
Y1397000D01*
X629000D01*
X639000Y1387000D01*
D02*
G37*
G36*
X1396816Y1381816D02*
X1355000Y1340000D01*
X1189000D01*
X1129786Y1379800D01*
X1130152Y1381016D01*
X1396326Y1382988D01*
X1396816Y1381816D01*
D02*
G37*
G36*
X1250000Y1398001D02*
X736000Y1398000D01*
Y1417000D01*
X1250000D01*
Y1398001D01*
D02*
G37*
G36*
X1268000Y1173000D02*
X1278000D01*
X1285000Y1166000D01*
X1292000D01*
Y1160000D01*
X1285000D01*
X1281000Y1157000D01*
X1182500Y1157500D01*
X1157000Y1157500D01*
X1156000Y1158500D01*
X1156000Y1167000D01*
X1166000Y1177000D01*
X1264000D01*
X1268000Y1173000D01*
D02*
G37*
G36*
X708000Y1172000D02*
X700000D01*
X688000Y1160000D01*
X682898Y1160000D01*
X682000Y1160898D01*
Y1183000D01*
X708000D01*
Y1172000D01*
D02*
G37*
G36*
X861004Y1213996D02*
X907500Y1167500D01*
Y1152500D01*
X894998Y1139998D01*
X835000Y1140000D01*
Y1140000D01*
X736000Y1140000D01*
X730000Y1134000D01*
X712000D01*
Y1142000D01*
X724000D01*
X792000Y1210000D01*
X826000D01*
X835000Y1201000D01*
Y1214000D01*
X861004Y1213996D01*
D02*
G37*
D10*
X1290000Y1163500D02*
D03*
Y1154000D02*
D03*
Y1144500D02*
D03*
X1314000D02*
D03*
Y1154000D02*
D03*
Y1163500D02*
D03*
D11*
X1192000Y1279350D02*
D03*
Y1194350D02*
D03*
X808000Y1279350D02*
D03*
Y1194350D02*
D03*
D12*
X772000Y1158000D02*
D03*
Y1130000D02*
D03*
X668000Y1106000D02*
D03*
Y1078000D02*
D03*
X1194000Y1344000D02*
D03*
Y1316000D02*
D03*
D13*
X1142500Y810000D02*
D03*
X1152000D02*
D03*
X1161500D02*
D03*
Y786000D02*
D03*
X1152000D02*
D03*
X1142500D02*
D03*
X858500Y810000D02*
D03*
X868000D02*
D03*
X877500D02*
D03*
Y786000D02*
D03*
X868000D02*
D03*
X858500D02*
D03*
D14*
X1274950Y1181750D02*
D03*
X1287650D02*
D03*
X1300350D02*
D03*
X1313050D02*
D03*
X1314066Y1237940D02*
D03*
X1300604D02*
D03*
X1287396D02*
D03*
X1273934D02*
D03*
X684950Y1177750D02*
D03*
X697650D02*
D03*
X710350D02*
D03*
X723050D02*
D03*
X724066Y1233940D02*
D03*
X710604D02*
D03*
X697396D02*
D03*
X683934D02*
D03*
D15*
X668000Y1158000D02*
D03*
X684000D02*
D03*
X858000Y748000D02*
D03*
X842000D02*
D03*
X1168000Y834000D02*
D03*
X1152000D02*
D03*
X868000D02*
D03*
X884000D02*
D03*
X1154000Y748000D02*
D03*
X1138000D02*
D03*
X698000Y1018000D02*
D03*
X714000D02*
D03*
X698000Y1038000D02*
D03*
X714000D02*
D03*
X720000Y1158000D02*
D03*
X704000D02*
D03*
X714000Y1138000D02*
D03*
X698000D02*
D03*
D16*
X1237334Y1382001D02*
D03*
Y1398001D02*
D03*
X1200000Y1382001D02*
D03*
Y1398001D02*
D03*
X742664Y1382000D02*
D03*
Y1398000D02*
D03*
X777332Y1382000D02*
D03*
Y1398000D02*
D03*
X806000Y768000D02*
D03*
Y784000D02*
D03*
X710000D02*
D03*
Y768000D02*
D03*
X1172000Y758000D02*
D03*
Y742000D02*
D03*
X1332000Y1180000D02*
D03*
Y1164000D02*
D03*
X1370000Y1180000D02*
D03*
Y1164000D02*
D03*
X1350000Y1180000D02*
D03*
Y1164000D02*
D03*
X1256000Y1146000D02*
D03*
Y1162000D02*
D03*
X1274000Y1146000D02*
D03*
Y1162000D02*
D03*
X1194000Y768000D02*
D03*
Y784000D02*
D03*
X890000Y758000D02*
D03*
Y742000D02*
D03*
X1292000Y748000D02*
D03*
Y764000D02*
D03*
D17*
X735200Y757000D02*
D03*
X780800D02*
D03*
X1219200D02*
D03*
X1264800D02*
D03*
D18*
X758000Y818000D02*
D03*
X1242000D02*
D03*
D19*
X692950Y1060750D02*
D03*
X705650D02*
D03*
X718350D02*
D03*
X731050D02*
D03*
X692950Y1115250D02*
D03*
X705650D02*
D03*
X718350D02*
D03*
X731050D02*
D03*
D20*
X1200000Y1382001D02*
X1237334D01*
X1194000D02*
X1200000D01*
X1176000Y1162000D02*
X1256000D01*
X730000Y1020000D02*
X732500D01*
X1176000Y1162000D02*
X1176000Y1162000D01*
X1176000Y1162000D02*
Y1162000D01*
Y1162000D02*
Y1162000D01*
X1100000Y1310000D02*
X1150000D01*
X1192000Y1279350D02*
X1194000Y1281350D01*
Y1316000D01*
X731050Y1089050D02*
X772000Y1130000D01*
X731050Y1038950D02*
Y1089050D01*
X721000Y757000D02*
X735200D01*
X877500Y814000D02*
Y819500D01*
Y810000D02*
Y814000D01*
X879500Y812000D01*
X891500D01*
X877500Y819500D02*
X884000Y826000D01*
Y834000D01*
X1399500Y835500D02*
X1400000Y835000D01*
X1399500Y835500D02*
Y1054000D01*
X1296000Y1154000D02*
X1298500Y1151500D01*
X1290000Y1154000D02*
X1296000D01*
X1350000Y1180000D02*
X1350000Y1180000D01*
X1370000D01*
X1332000Y1180000D02*
X1332000Y1180000D01*
X1035000Y1400000D02*
X1036999Y1398001D01*
X777332Y1398000D02*
X962999D01*
X742664D02*
X777332D01*
X962999D02*
X965000Y1400000D01*
X1036999Y1398001D02*
X1244003D01*
X742664Y1398000D02*
X742665Y1398001D01*
X1194000Y1382001D02*
X1194000Y1382001D01*
Y1344000D02*
Y1382001D01*
X1382001Y1382001D02*
X1400000Y1400000D01*
X1176000Y1178349D02*
X1192000Y1194350D01*
X1314000Y1144500D02*
X1332500D01*
X1350000Y1162000D01*
Y1164000D01*
X1331500Y1163500D02*
X1332000Y1164000D01*
X1314000Y1163500D02*
X1331500D01*
X1287650Y1181750D02*
X1300350D01*
X1274950D02*
X1287650D01*
X1332000Y1180000D02*
X1350000D01*
X1314800D02*
X1332000D01*
X1313050Y1181750D02*
X1314800Y1180000D01*
X1256000Y1146000D02*
X1257500Y1144500D01*
X1256000Y1162000D02*
X1257500Y1163500D01*
X1192000Y768000D02*
X1194000D01*
X1218000D02*
X1224000Y774000D01*
X808000Y1194000D02*
Y1194350D01*
X698000Y1028000D02*
Y1038000D01*
Y1018000D02*
Y1028000D01*
X808000Y1279350D02*
Y1378000D01*
X600000Y1400000D02*
X618000Y1382000D01*
X720000Y1158000D02*
X723050Y1161050D01*
Y1177750D01*
X697650D02*
X710350D01*
X684950D02*
X697650D01*
X714000Y1138000D02*
X718350Y1133650D01*
Y1115250D02*
Y1133650D01*
X692950Y1132950D02*
X698000Y1138000D01*
X692950Y1115250D02*
Y1132950D01*
X679250Y1115250D02*
X692950D01*
X670000Y1106000D02*
X679250Y1115250D01*
X668000Y1106000D02*
X670000D01*
X668000Y1078000D02*
X682000Y1064000D01*
X689700D01*
X692950Y1060750D01*
Y1051050D02*
Y1060750D01*
Y1051050D02*
X698000Y1046000D01*
Y1038000D02*
Y1046000D01*
X710000Y768000D02*
X721000Y757000D01*
X632000Y768000D02*
X710000D01*
X868000Y774000D02*
Y786000D01*
Y774000D02*
X868000Y774000D01*
X1152000Y771000D02*
Y786000D01*
X1168000Y816500D02*
Y834000D01*
X1274000Y1132000D02*
Y1144500D01*
Y1146000D01*
X1257500Y1144500D02*
X1274000D01*
X1290000D01*
X1370000Y1150000D02*
Y1164000D01*
X1219200Y757000D02*
Y766800D01*
X678000Y1028000D02*
X698000D01*
X1161500Y810000D02*
X1169750Y818250D01*
X1194000Y784000D02*
Y794000D01*
X1182000Y807000D02*
X1190000Y815000D01*
X1182000Y806000D02*
Y807000D01*
X1169750Y818250D02*
X1182000Y806000D01*
X1194000Y794000D01*
X1170000Y1168000D02*
X1176000Y1162000D01*
X1176000Y1162000D01*
X1176000Y1162000D02*
Y1178349D01*
X883000Y721000D02*
X890000Y728000D01*
Y742000D01*
X867999Y770000D02*
X870000D01*
X1318500Y1135000D02*
X1399500Y1054000D01*
X1296753Y1163500D02*
X1305750Y1154503D01*
X1310990Y1135000D02*
X1318500D01*
X1305750Y1140240D02*
Y1154503D01*
Y1140240D02*
X1310990Y1135000D01*
X734000Y794000D02*
X758000Y818000D01*
X804000Y786000D02*
X806000Y784000D01*
X758000Y813500D02*
Y818000D01*
Y813500D02*
X785500Y786000D01*
X804000D01*
X710000Y784000D02*
X712000Y786000D01*
X730500D01*
X734000Y789500D01*
Y794000D01*
X1167000Y721000D02*
X1172000Y726000D01*
Y740000D01*
X1174000Y742000D01*
X1224000Y774000D02*
X1276000D01*
X1302000Y800000D01*
X1139000Y947000D02*
X1142000Y950000D01*
X1139000Y813500D02*
Y947000D01*
Y813500D02*
X1142000Y810500D01*
X855000Y813500D02*
X858000Y810500D01*
X855000Y813500D02*
Y947000D01*
X858000Y950000D01*
X1150997Y769000D02*
X1151497Y768500D01*
X1153000D01*
X1152000Y771000D02*
X1153000Y770000D01*
Y768500D02*
Y770000D01*
X1292000Y764000D02*
X1296000D01*
X1302500Y770500D01*
X1305500D01*
X1218000Y768000D02*
X1219200Y766800D01*
X1194000Y768000D02*
X1218000D01*
X1142000Y950000D02*
X1182000D01*
X1298500Y1066500D01*
Y1151500D01*
X869350Y1279350D02*
X900000Y1310000D01*
X808000Y1279350D02*
X869350D01*
X1171500Y1166500D02*
X1176000Y1162000D01*
X1132000Y1382001D02*
X1194000D01*
X1237334D02*
X1382001D01*
X600000Y800000D02*
X632000Y768000D01*
X1302000Y800000D02*
X1400000D01*
X1257500Y1163500D02*
X1296753D01*
D21*
X1161340Y785840D02*
X1161500Y786000D01*
X1138000Y725001D02*
X1142000Y721000D01*
X1138000Y725001D02*
Y748000D01*
X1154000D02*
X1155520Y749520D01*
X705650Y1006350D02*
Y1060750D01*
Y1006350D02*
X762000Y950000D01*
X858000D01*
X704000Y1158000D02*
X705650Y1156350D01*
Y1115250D02*
Y1156350D01*
X712000Y1140000D02*
X714000Y1138000D01*
X712000Y1140000D02*
Y1172000D01*
X710350Y1173650D02*
X712000Y1172000D01*
X710350Y1173650D02*
Y1177750D01*
X684950Y1163050D02*
Y1177750D01*
X866000Y798000D02*
X868000Y800000D01*
X856000Y798000D02*
X866000D01*
X842000Y784000D02*
X856000Y798000D01*
X842000Y748000D02*
Y784000D01*
X858000Y721000D02*
Y748000D01*
X795000Y757000D02*
X806000Y768000D01*
X780800Y757000D02*
X795000D01*
X694000Y1148000D02*
X704000Y1158000D01*
X857129Y748871D02*
X858000Y748000D01*
X857129Y748871D02*
Y784629D01*
X858500Y786000D01*
X1290000Y748000D02*
X1292000D01*
X1288000Y750000D02*
X1290000Y748000D01*
X1269000Y750000D02*
X1288000D01*
X877500Y782500D02*
Y786000D01*
X890000Y758000D02*
Y770000D01*
X877500Y782500D02*
X890000Y770000D01*
X668000Y1155000D02*
Y1158000D01*
Y1155000D02*
X675000Y1148000D01*
X694000D01*
X1161340Y782660D02*
Y785840D01*
X1206480Y749520D02*
X1210000Y746000D01*
X1264800Y754200D02*
X1269000Y750000D01*
X1264800Y752800D02*
Y754200D01*
Y757000D01*
X1210000Y746000D02*
X1228000D01*
X1232000Y750000D01*
X1152000Y802000D02*
X1156500Y797500D01*
X1166500D01*
X806000Y768000D02*
X822000D01*
X842000Y748000D01*
X1172500Y759500D02*
Y771500D01*
X1161340Y782660D02*
X1172500Y771500D01*
X1155520Y749520D02*
X1183000D01*
X1166500Y797500D02*
X1183000Y781000D01*
Y749520D02*
X1206480D01*
X1183000D02*
Y781000D01*
X1138000Y748000D02*
Y777500D01*
X1142500Y782000D01*
Y786000D01*
X868000Y800000D02*
Y834000D01*
X1232000Y750000D02*
X1269000D01*
X1152000Y802000D02*
Y834000D01*
X1172500Y759500D02*
X1174000Y758000D01*
D22*
X1100000Y1160000D02*
X1102500Y1162500D01*
X1157000D01*
X1173000Y1178500D01*
D23*
X900000Y1310000D02*
D03*
X1100000D02*
D03*
X900000Y1160000D02*
D03*
X1100000D02*
D03*
D24*
X850000Y1377500D02*
D03*
Y1402500D02*
D03*
X617500Y900000D02*
D03*
X642500D02*
D03*
X1382500D02*
D03*
X1357500D02*
D03*
X1150000Y1377500D02*
D03*
Y1402500D02*
D03*
D25*
X906000Y651001D02*
D03*
X810000D02*
D03*
X1190000D02*
D03*
X1094000D02*
D03*
D26*
X858000Y721001D02*
D03*
X833000D02*
D03*
X883000D02*
D03*
X1142000D02*
D03*
X1117000D02*
D03*
X1167000D02*
D03*
D27*
X1000000Y1400000D02*
D03*
X600000Y800000D02*
D03*
X1400000D02*
D03*
Y1400000D02*
D03*
X600000D02*
D03*
D28*
X1173250Y981250D02*
D03*
Y918750D02*
D03*
X1110750Y981250D02*
D03*
Y918750D02*
D03*
X1142000Y950000D02*
D03*
X858000D02*
D03*
X826750Y918750D02*
D03*
Y981250D02*
D03*
X889250Y918750D02*
D03*
Y981250D02*
D03*
D29*
X1000000Y1235200D02*
D03*
Y1260600D02*
D03*
D30*
X1024000Y1424000D02*
D03*
Y1376000D02*
D03*
X976000D02*
D03*
Y1424000D02*
D03*
X1035000Y1400000D02*
D03*
X1000000Y1365000D02*
D03*
X965000Y1400000D02*
D03*
X1000000Y1435000D02*
D03*
X600000Y835000D02*
D03*
X565000Y800000D02*
D03*
X600000Y765000D02*
D03*
X635000Y800000D02*
D03*
X576000Y824000D02*
D03*
Y776000D02*
D03*
X624000D02*
D03*
Y824000D02*
D03*
X1400000Y835000D02*
D03*
X1365000Y800000D02*
D03*
X1400000Y765000D02*
D03*
X1435000Y800000D02*
D03*
X1376000Y824000D02*
D03*
Y776000D02*
D03*
X1424000D02*
D03*
Y824000D02*
D03*
X1400000Y1435000D02*
D03*
X1365000Y1400000D02*
D03*
X1400000Y1365000D02*
D03*
X1435000Y1400000D02*
D03*
X1376000Y1424000D02*
D03*
Y1376000D02*
D03*
X1424000D02*
D03*
Y1424000D02*
D03*
X600000Y1435000D02*
D03*
X565000Y1400000D02*
D03*
X600000Y1365000D02*
D03*
X635000Y1400000D02*
D03*
X576000Y1424000D02*
D03*
Y1376000D02*
D03*
X624000D02*
D03*
Y1424000D02*
D03*
D31*
X1000000Y1400000D02*
D03*
X600000Y800000D02*
D03*
X1400000D02*
D03*
Y1400000D02*
D03*
X600000D02*
D03*
D32*
X1222000Y1406000D02*
D03*
X731050Y1020000D02*
D03*
X754000Y1128000D02*
D03*
X774000Y798000D02*
D03*
X744000D02*
D03*
X891500Y812000D02*
D03*
X790000Y1128000D02*
D03*
X1274000Y1132000D02*
D03*
X1370000Y1150000D02*
D03*
X1188000Y1406000D02*
D03*
X794000D02*
D03*
X761000D02*
D03*
X744000Y816000D02*
D03*
X774000D02*
D03*
X744000Y834000D02*
D03*
X774000D02*
D03*
X1258000Y832000D02*
D03*
X1228000D02*
D03*
X1258000Y814000D02*
D03*
X1228000D02*
D03*
Y796000D02*
D03*
X1258000D02*
D03*
X870000Y770000D02*
D03*
X731050Y1038950D02*
D03*
X772000Y1115000D02*
D03*
X1183000Y836000D02*
D03*
X1201000D02*
D03*
Y818000D02*
D03*
X1183000D02*
D03*
X891500Y826000D02*
D03*
X1153000Y768500D02*
D03*
X1305500Y770500D02*
D03*
M02*
